<?xml version="1.0" encoding="utf-8"?>
<!-- Generator: Adobe Illustrator 25.0.0, SVG Export Plug-In . SVG Version: 6.00 Build 0)  -->
<svg version="1.1" id="Layer_1" xmlns="http://www.w3.org/2000/svg" xmlns:xlink="http://www.w3.org/1999/xlink" x="0px" y="0px"
	 viewBox="0 0 430.3 98.3" style="enable-background:new 0 0 430.3 98.3;" xml:space="preserve">
<style type="text/css">
	.st0{fill:#FFFFFF;}
	.st1{fill:#70C168;}
</style>
<g>
	<g>
		<path class="st0" d="M417.1,0.1v1.7h-3.4v8.8h-2.1V1.8h-3.4V0.1H417.1z M428.4,10.6L428,4.4c0-0.8,0-1.8-0.1-2.9h-0.1
			c-0.3,0.9-0.6,2.2-0.9,3.1l-1.9,5.8h-2.2l-1.9-6c-0.2-0.8-0.5-2.1-0.7-3h-0.1c0,1,0,2-0.1,2.9l-0.4,6.2h-2L418.4,0h3.1l1.8,5.1
			c0.2,0.8,0.4,1.6,0.7,2.7l0,0c0.3-1,0.5-1.9,0.7-2.6l1.8-5.2h3l0.8,10.5L428.4,10.6L428.4,10.6z"/>
	</g>
	<path class="st1" d="M35.8,30.5c0,6.5-1.6,12-4.9,16.5c-3.1,4.4-6.7,6.6-10.8,6.6H0V10.4h20.8c3.4,0,6.7,1.6,9.7,4.9
		C34,19.2,35.8,24.3,35.8,30.5z M26.8,31.2c0-3.5-0.7-6.6-2.2-9.2c-1.5-2.8-3.5-4.2-5.8-4.2h-10v28.3H17c2.9,0,5.2-1.3,7.1-4
		C25.9,39.5,26.8,35.8,26.8,31.2z"/>
	<path class="st0" d="M50.5,17.8h-8.3v-7.4h8.3V17.8z M50.5,53.6h-8.3V21.5h8.3V53.6z"/>
	<path class="st0" d="M86.5,21.5L75.4,53.6h-8.7L55.6,21.5h8.8L71.1,45l6.7-23.5C77.8,21.5,86.5,21.5,86.5,21.5z"/>
	<path class="st0" d="M118.9,37.6c0,0.9-0.1,1.8-0.2,2.5H97.4c-0.1,0.2-0.1,0.6-0.1,1.1c0,2.1,0.6,3.8,1.9,5.1
		c1.3,1.3,3,1.9,5.1,1.9c1.4,0,2.6-0.4,3.8-1.2c1.1-0.8,1.7-1.6,2-2.5h8.4c-1.1,3.1-3.1,5.6-5.8,7.5s-5.9,2.8-9.3,2.8
		c-3.8,0-7.1-1.2-9.7-3.6c-3.1-2.9-4.7-7-4.7-12.4c0-5.8,1.3-10.2,3.8-13.3s6.1-4.7,10.8-4.7c4.6,0,8.3,1.5,11.1,4.6
		C117.5,28.6,118.9,32.6,118.9,37.6z M110.1,34.6c-0.2-4.5-2.3-6.7-6.2-6.7c-4,0-6.1,2.2-6.6,6.7H110.1z"/>
	<path class="st0" d="M142.6,29.3c-1.1-0.1-1.9-0.2-2.4-0.2c-2.3,0-4.2,0.6-5.5,1.9c-1.3,1.2-2,2.8-2,4.7v17.8h-8.3V21.4h8.3v6.2
		c0.6-1.9,1.8-3.5,3.6-4.8s3.6-2,5.3-2c0.2,0,0.5,0,1,0.1L142.6,29.3L142.6,29.3z"/>
	<path class="st0" d="M174.6,43.8c0,3.3-1.2,6-3.7,8.1s-5.7,3.1-9.7,3.1c-4.9,0-8.7-0.9-11.4-2.8c-2.7-1.9-4.1-4.6-4.3-8h8.2
		c0.3,1.6,1.4,2.8,3.1,3.6c1.4,0.7,3,1,4.9,1c1.2,0,2.2-0.3,3.1-1c0.8-0.7,1.2-1.5,1.2-2.4s-0.3-1.7-0.8-2.1
		c-0.4-0.3-1.4-0.7-2.9-1.1l-9.4-2.7c-4.2-1.2-6.2-4-6.2-8.3c0-3,1.2-5.5,3.6-7.3c2.4-1.9,5.7-2.8,9.8-2.8s7.4,1,9.9,3
		s3.8,4.6,3.8,7.9h-8c0.1-1.4-0.4-2.5-1.5-3.3s-2.7-1.3-4.9-1.3c-1.2,0-2.2,0.3-3.1,0.8c-1.1,0.6-1.6,1.4-1.6,2.3
		c0,1.1,0.4,1.7,1.1,1.9l11.9,3.3C172.2,36.8,174.6,39.5,174.6,43.8z"/>
	<path class="st0" d="M207.9,37.6c0,0.9-0.1,1.8-0.2,2.5h-21.3c-0.1,0.2-0.1,0.6-0.1,1.1c0,2.1,0.6,3.8,1.9,5.1
		c1.3,1.3,3,1.9,5.1,1.9c1.4,0,2.6-0.4,3.8-1.2c1.1-0.8,1.7-1.6,2-2.5h8.4c-1.1,3.1-3.1,5.6-5.8,7.5c-2.8,1.9-5.9,2.8-9.3,2.8
		c-3.8,0-7.1-1.2-9.7-3.6c-3.1-2.9-4.7-7-4.7-12.4c0-5.8,1.3-10.2,3.8-13.3s6.1-4.7,10.8-4.7c4.6,0,8.3,1.5,11.1,4.6
		C206.5,28.6,207.9,32.6,207.9,37.6z M199.1,34.6c-0.2-4.5-2.3-6.7-6.2-6.7c-4,0-6.1,2.2-6.6,6.7H199.1z"/>
	<path class="st1" d="M250.5,10.4l-14.7,43.2h-7.6l-14.6-43.2h9l9.4,32.5l9.5-32.5H250.5z"/>
	<path class="st0" d="M264,17.8h-8.3v-7.4h8.3V17.8z M264,53.6h-8.3V21.5h8.3V53.6z"/>
	<path class="st0" d="M286,54.2c-1.9,0.5-3.7,0.7-5.3,0.7c-2.1,0-3.9-0.6-5.4-1.9c-1.5-1.3-2.3-2.8-2.3-4.6V27.6h-4v-5.5h4.1v-8.7
		h8.3v8.7h4.6v5.5h-4.6v19.2c0,1.2,0.9,1.8,2.8,1.8c0.4,0,1-0.1,1.8-0.1V54.2L286,54.2z"/>
	<path class="st0" d="M319,53.6h-8.8c-0.4-0.6-0.7-1.7-0.9-3.1c-3,3-6.5,4.6-10.3,4.6c-3.1,0-5.4-0.9-7.1-2.6
		c-1.6-1.7-2.4-4.2-2.4-7.3c0-2.6,0.8-4.8,2.3-6.7s3.6-3,6.2-3.4c1.2-0.2,3.3-0.4,6.2-0.8c1.7-0.3,3-0.7,3.8-1.3s1.2-1.5,1.3-2.8
		c0.1-2.2-1.6-3.3-5.2-3.3c-3.7,0-5.6,1.7-5.8,5.2h-7.9c0.2-3.8,1.3-6.6,3.4-8.4s5.4-2.8,9.9-2.8c8.9,0,13.3,3.4,13.3,10.3v17.7
		c0,1.4,0.6,2.6,1.8,3.6v1.1L319,53.6L319,53.6z M309.3,39.6v-1.2c-1.2,0.7-2.4,1.1-3.6,1.2c-2.9,0.4-4.8,0.8-5.8,1.3
		c-1.4,0.7-2.1,1.9-2.1,3.6c0,2.5,1.5,3.7,4.6,3.7C307,48.1,309.3,45.3,309.3,39.6z"/>
	<path class="st0" d="M333.2,53.6h-8.3V10.4h8.3V53.6z"/>
	<path class="st0" d="M349.6,17.8h-8.3v-7.4h8.3V17.8z M349.6,53.6h-8.3V21.5h8.3V53.6z"/>
	<path class="st0" d="M371.7,54.2c-1.9,0.5-3.7,0.7-5.3,0.7c-2.1,0-3.9-0.6-5.4-1.9c-1.5-1.3-2.3-2.8-2.3-4.6V27.6h-4.1v-5.5h4.1
		v-8.7h8.3v8.7h4.6v5.5H367v19.2c0,1.2,0.9,1.8,2.8,1.8c0.4,0,1-0.1,1.8-0.1v5.7L371.7,54.2L371.7,54.2z"/>
	<path class="st0" d="M405.5,21.5l-13.8,39.2c-1.2,3.4-3.8,5.2-7.7,5.5l-5.5,0.4v-6.8h1.2c4,0,6-1.7,6-5L374,21.4h9.2l6.9,23.3
		l6.7-23.3L405.5,21.5L405.5,21.5L405.5,21.5z"/>
	<path class="st1" d="M52.6,89.7c0,2.3-0.8,4.3-2.5,6.1c-1.5,1.7-3.2,2.5-5,2.5H30.3V68.4h13.4c1.7,0,3.3,0.6,4.8,1.8
		c1.9,1.5,2.8,3.4,2.8,5.8c0,3.1-1.3,5.2-3.9,6.3C50.9,83.8,52.6,86.2,52.6,89.7z M47.5,76.8c0-1.6-0.7-2.9-2.1-3.8
		c-1.2-0.8-2.6-1.1-4.2-1.1h-7v9.4h8.6c1.2,0,2.3-0.4,3.2-1.1C46.9,79.3,47.5,78.2,47.5,76.8z M48.9,89.7c0-3.4-2-5-6.1-5h-8.6v10.2
		h10c1.3,0,2.4-0.5,3.3-1.5C48.4,92.3,48.9,91.1,48.9,89.7z"/>
	<path class="st1" d="M60.5,70.9H57v-4.3h3.4L60.5,70.9L60.5,70.9z M60.5,96.5H57V75h3.4L60.5,96.5L60.5,96.5z"/>
	<path class="st1" d="M84.3,85.6c0,3.5-0.7,6.3-2.1,8.3c-1.7,2.3-4.2,3.5-7.6,3.5c-3.2,0-5.6-1.1-7.3-3.2c-1.6-2-2.4-4.9-2.4-8.6
		c0-3.5,0.8-6.2,2.5-8.2s4.1-3,7.2-3s5.5,1,7.2,3C83.4,79.4,84.3,82.1,84.3,85.6z M80.8,85.6c0-2.4-0.6-4.4-1.8-5.8
		c-1.1-1.3-2.6-2-4.3-2s-3.2,0.7-4.3,2c-1.2,1.4-1.8,3.4-1.8,5.8c0,2.5,0.6,4.6,1.7,6.1c1.1,1.5,2.6,2.3,4.5,2.3s3.4-0.8,4.5-2.3
		C80.2,90.2,80.8,88.1,80.8,85.6z"/>
	<path class="st1" d="M106.4,96.5h-3v-2.4c-1.4,1.4-2.5,2.3-3.3,2.7s-2,0.6-3.3,0.6c-3,0-5.4-1-7-3.1c-1.7-2-2.5-4.9-2.5-8.5
		c0-3.4,0.8-6.2,2.5-8.3s3.9-3.2,6.6-3.2c2.7,0,4.9,1.1,6.6,3.2V66.6h3.4V96.5z M103,86.2c0-5.5-2.2-8.3-6.6-8.3
		c-1.7,0-3,0.7-3.9,2.2c-1,1.5-1.4,3.4-1.4,5.7c0,2.5,0.5,4.6,1.6,6.1s2.5,2.3,4.4,2.3c1.8,0,3.3-0.7,4.3-2.1
		C102.5,90.7,103,88.7,103,86.2z"/>
	<path class="st1" d="M115.1,70.9h-3.4v-4.3h3.4V70.9z M115.1,96.5h-3.4V75h3.4V96.5z"/>
	<path class="st1" d="M137.9,75l-8.2,21.5H126L118.5,75h3.8l5.6,17.4l6.2-17.4H137.9z"/>
	<path class="st1" d="M159.5,85.8c0,0.5,0,0.9,0,1.3h-15.6c0,0.2,0,0.5,0,0.8c0,1.7,0.6,3.2,1.8,4.5s2.6,2,4.2,2
		c2.8,0,4.8-1.5,5.8-4.5h3.5c-1.1,5-4.1,7.5-8.9,7.5c-6.7,0-10-3.9-10-11.6c0-3.3,0.9-6.1,2.7-8.2c1.8-2.1,4.2-3.2,7-3.2
		s5.1,0.9,6.7,2.6C158.5,79,159.5,81.9,159.5,85.8z M155.9,84.1c-0.4-4.6-2.4-6.9-5.8-6.9c-3.6,0-5.6,2.3-6.1,6.9H155.9z"/>
	<path class="st1" d="M174.4,78c-2.1,0-3.8,0.5-5,1.6c-1.3,1.1-1.9,2.8-1.9,4.9v12h-3.4V75h3.4v3.4c1.4-2.7,3.3-4.1,5.9-4.1
		c0.2,0,0.5,0,1,0.1V78z"/>
	<path class="st1" d="M193.7,90.6c0,2.1-0.8,3.8-2.4,5s-3.7,1.8-6.2,1.8c-3.2,0-5.5-0.6-6.8-1.9c-1.2-1.1-1.8-2.9-1.9-5.3h3.3
		c0,1.4,0.6,2.6,1.8,3.4c1,0.7,2.2,1,3.6,1c1.6,0,2.8-0.3,3.8-0.9c1-0.6,1.5-1.5,1.5-2.6c0-1.5-0.9-2.5-2.8-3l-5.4-1.3
		c-2-0.5-3.5-1.3-4.3-2.4c-0.7-0.9-1-2.1-1-3.7c0-1.9,0.8-3.5,2.3-4.6s3.5-1.7,6-1.7c2.3,0,4.2,0.6,5.5,1.7c1.3,1.1,2,2.8,2.1,4.9
		h-3.4c-0.1-2.3-1.7-3.4-4.8-3.4c-1.1,0-2.2,0.3-3.1,0.9c-0.9,0.6-1.4,1.4-1.4,2.4c0,1.3,1,2.2,3,2.7l5.6,1.4
		C192.1,85.8,193.7,87.7,193.7,90.6z"/>
	<path class="st1" d="M216.4,85.8c0,0.5,0,0.9,0,1.3h-15.6c0,0.2,0,0.5,0,0.8c0,1.7,0.6,3.2,1.8,4.5s2.6,2,4.2,2
		c2.8,0,4.8-1.5,5.8-4.5h3.5c-1.1,5-4.1,7.5-8.9,7.5c-6.7,0-10-3.9-10-11.6c0-3.3,0.9-6.1,2.7-8.2c1.8-2.1,4.2-3.2,7-3.2
		s5.1,0.9,6.7,2.6C215.4,79,216.4,81.9,216.4,85.8z M212.8,84.1c-0.4-4.6-2.4-6.9-5.8-6.9c-3.6,0-5.6,2.3-6.1,6.9H212.8z"/>
	<path class="st1" d="M255,88.4c0,2.7-1.1,4.8-3.2,6.5c-2.2,1.7-5,2.5-8.6,2.5c-3.8,0-6.6-0.9-8.6-2.7s-3-4.4-3-7.7h3.5
		c0.2,2.5,1,4.2,2.4,5.4c1.4,1.1,3.6,1.7,6.5,1.7c2.1,0,3.8-0.5,5.1-1.6c1.3-1,1.9-2.4,1.9-4c0-2.1-1.5-3.6-4.4-4.3l-8.1-2.1
		c-4-1.1-6-3.4-6-7.1c0-2.6,0.9-4.7,2.8-6.4c1.8-1.6,4.3-2.4,7.3-2.4c7.5,0,11.4,3.1,11.5,9.2h-3.6c-0.1-2-0.9-3.6-2.3-4.6
		c-1.3-0.9-3-1.4-5.2-1.4c-1.9,0-3.5,0.5-4.8,1.5s-1.9,2.2-1.9,3.7c0,2,1.3,3.3,3.9,4l9.3,2.5c1.6,0.4,2.9,1.3,4,2.7
		C254.4,85,255,86.6,255,88.4z"/>
	<path class="st1" d="M277.8,85.6c0,3.5-0.7,6.3-2.1,8.3c-1.7,2.3-4.2,3.5-7.6,3.5c-3.2,0-5.6-1.1-7.3-3.2c-1.6-2-2.4-4.9-2.4-8.6
		c0-3.5,0.8-6.2,2.5-8.2s4.1-3,7.2-3s5.5,1,7.2,3C276.9,79.4,277.8,82.1,277.8,85.6z M274.2,85.6c0-2.4-0.6-4.4-1.8-5.8
		c-1.1-1.3-2.6-2-4.3-2c-1.8,0-3.2,0.7-4.3,2c-1.2,1.4-1.8,3.4-1.8,5.8c0,2.5,0.6,4.6,1.7,6.1s2.6,2.3,4.5,2.3s3.4-0.8,4.5-2.3
		C273.7,90.2,274.2,88.1,274.2,85.6z"/>
	<path class="st1" d="M285.9,96.5h-3.4V66.6h3.4V96.5z"/>
	<path class="st1" d="M308.5,96.5H305v-2.4c-0.8,1.2-1.7,2-2.7,2.5s-2.5,0.8-4.3,0.8c-2.7,0-4.6-0.9-5.7-2.6c-0.6-1-0.9-2-0.9-3.2
		V75h3.4v15.8c0,1,0.4,1.8,1.1,2.5c0.8,0.7,1.7,1,2.9,1c1.7,0,3.2-0.6,4.4-1.9c1.2-1.3,1.8-2.8,1.8-4.6V75h3.4v21.5H308.5z"/>
	<path class="st1" d="M321.9,97.2c-1,0.2-2,0.3-2.9,0.3c-1.2,0-2.2-0.3-2.9-1c-0.7-0.6-1-1.3-1-2.1V78.2h-3V75h3v-5.8h3.4V75h3.4
		v3.2h-3.4v15.2c0,0.7,0.5,1,1.5,1c0.4,0,1-0.1,1.9-0.2V97.2z"/>
	<path class="st1" d="M329,70.9h-3.4v-4.3h3.4V70.9z M329,96.5h-3.4V75h3.4V96.5z"/>
	<path class="st1" d="M352.9,85.6c0,3.5-0.7,6.3-2.1,8.3c-1.7,2.3-4.2,3.5-7.6,3.5c-3.2,0-5.6-1.1-7.3-3.2c-1.6-2-2.4-4.9-2.4-8.6
		c0-3.5,0.8-6.2,2.5-8.2s4.1-3,7.2-3s5.5,1,7.2,3C352,79.4,352.9,82.1,352.9,85.6z M349.4,85.6c0-2.4-0.6-4.4-1.8-5.8
		c-1.1-1.3-2.6-2-4.3-2c-1.8,0-3.2,0.7-4.3,2c-1.2,1.4-1.8,3.4-1.8,5.8c0,2.5,0.6,4.6,1.7,6.1s2.6,2.3,4.5,2.3s3.4-0.8,4.5-2.3
		C348.8,90.2,349.4,88.1,349.4,85.6z"/>
	<path class="st1" d="M374.7,96.5h-3.4V80.9c0-0.8-0.4-1.6-1.3-2.3c-0.8-0.7-1.9-1-3.1-1c-1.7,0-3.1,0.6-4.2,1.9
		c-1.1,1.2-1.6,2.8-1.6,4.7v12.4h-3.4V75.1h3.4v2.8c1.5-2.3,3.6-3.4,6.3-3.4c2.6,0,4.6,0.7,5.8,2c1,1,1.5,2.3,1.5,3.9L374.7,96.5
		L374.7,96.5z"/>
	<path class="st1" d="M396.3,90.6c0,2.1-0.8,3.8-2.4,5s-3.7,1.8-6.2,1.8c-3.2,0-5.5-0.6-6.8-1.9c-1.2-1.1-1.8-2.9-1.9-5.3h3.3
		c0,1.4,0.6,2.6,1.8,3.4c1,0.7,2.2,1,3.6,1c1.6,0,2.8-0.3,3.8-0.9c1-0.6,1.5-1.5,1.5-2.6c0-1.5-0.9-2.5-2.8-3l-5.4-1.3
		c-2-0.5-3.5-1.3-4.3-2.4c-0.7-0.9-1-2.1-1-3.7c0-1.9,0.8-3.5,2.3-4.6s3.5-1.7,6-1.7c2.3,0,4.2,0.6,5.5,1.7c1.3,1.1,2,2.8,2.1,4.9
		H392c-0.1-2.3-1.7-3.4-4.8-3.4c-1.1,0-2.2,0.3-3.1,0.9c-0.9,0.6-1.4,1.4-1.4,2.4c0,1.3,1,2.2,3,2.7l5.6,1.4
		C394.7,85.8,396.3,87.7,396.3,90.6z"/>
</g>
</svg>
