<?xml version="1.0" encoding="utf-8"?>
<!-- Generator: Adobe Illustrator 25.0.0, SVG Export Plug-In . SVG Version: 6.00 Build 0)  -->
<svg version="1.1" id="Layer_1" xmlns="http://www.w3.org/2000/svg" xmlns:xlink="http://www.w3.org/1999/xlink" x="0px" y="0px"
	 viewBox="0 0 140.3 136.2" style="enable-background:new 0 0 140.3 136.2;" xml:space="preserve">
<style type="text/css">
	.st0{fill:#50AE5A;}
</style>
<g>
	<path class="st0" d="M14.1,102.5L14.1,102.5L14.1,102.5z"/>
	<path class="st0" d="M127.4,71.5c0.6-3.4-0.6-5.1-0.6-5.1s0.6,3.9-1.7,7.9c-0.6,1.1-1.7,2.3-2.8,3.4c-0.6,0.6-2.8,1.1-4.5,2.3
		c-1.1,0-2.3,0.6-2.8,0.6c-3.4,0-7.3-1.7-12.4-5.6c-10.7-7.9-6.8-16.3-1.7-20.9c5.6-4.5,9-4.5,15.2-0.6s7.9,3.4,11.8,4.5
		c6.2,1.7,9,7.9,9,7.9c0-4.5-5.6-7.9-5.6-7.9c3.9-2.3,8.5,0,9,0c-0.6-0.6-3.9-3.9-9.6-2.3c-5.1,1.1-8.5-1.7-8.5-1.7
		c8.5-2.8,13.5-12.4,13.5-13c-5.6,7.3-11.8,10.7-12.4,10.7c0,0,1.1-1.7,2.3-5.1c1.1-2.8,2.8-4.5,3.4-5.1c-2.8,0.6-4.5,3.4-5.1,6.8
		c-1.1,3.4-4.5,4.5-7.9,2.3s-6.2-2.8-6.2-2.8s2.3-3.9,7.9-6.8c5.1-2.8,10.7-1.7,13.5-3.4c5.1-2.8,5.6-7.9,5.6-7.9
		c-5.1,7.9-9,6.2-14.7,7.3c-5.6,1.1-10.1,4.5-10.1,4.5c2.8-2.8,3.4-5.6,3.9-9.6c0-4.5,3.9-5.1,3.9-5.1c-2.8-0.6-4.5,1.7-4.5,1.7
		c0-5.1,5.1-7.9,5.1-7.9c-1.7,0-3.9,1.1-5.6,3.9c-1.1,1.7-1.7,3.9-1.1,6.2c0.6,3.9-1.7,6.2-1.7,6.2c0.6-1.1,0-3.9-2.8-7.9
		c-2.8-3.4-0.6-6.8,0-7.3c-2.8,2.8-3.4,4.5-0.6,9.6c2.8,5.6,2.3,10.7-5.1,15.8c-7.3,4.5-19.2,9-25.9,2.8c-2.8-2.3-6.2-7.3-5.6-14.1
		c0.6-6.2,5.6-10.1,9.6-11.8c3.9-1.1,6.2-3.4,6.2-7.3c0-2.3,1.7-4.5,2.8-5.1c-1.1,0.6-2.8,2.3-3.9,5.6c-1.1,5.6-5.6,5.6-5.6,5.6
		s1.7-2.3,2.3-8.5c0-5.1,5.1-8.5,6.2-9.6c-7.3,3.1-7.9,11.6-7.9,11.6c-0.6-3.4-2.8-5.6-2.8-5.6c3.9,7.9,0,13-2.3,14.7
		c-2.3,1.7-3.9,3.9-3.9,3.9c-0.6-9.6-1.1-12.4,2.8-19.2c2.8-4.5,2.8-7.3,2.8-9c0-1.1,0-1.1,0-1.1c0,1.1-1.1,5.1-3.4,7.9
		c-3.4,4.5-3.4,6.8-3.4,7.3c-1.1-6.2-6.2-7.9-6.2-7.9c8.5,9,5.1,26.5,5.1,26.5s-2.8-6.8-9.6-7.3c-6.8-1.1-9-6.2-7.9-7.9
		C57.4,13,54.6,9,54.6,9c-0.6,6.8-2.8,9.6-5.1,8.5c-5.6-3.4-9.6-1.7-9.6-1.7c5.1,0.6,11.3,3.4,13,6.8s4.5,4.5,6.8,5.1
		s3.9,1.7,3.9,1.7s-2.3,0-5.1,2.3c-3.9,3.9-7.9,2.8-8.5,2.8c7.3,3.4,11.3-2.8,13.5-2.8c7.3,0,9,9.6,6.2,15.8
		C66.3,54.3,55,62.7,49.4,61c-11.3-3.4-16.3-8.5-9.6-14.7c5.1-4.5,4.5-8.5,4.5-8.5c-2.8,6.8-7.9,8.5-7.9,8.5
		c-1.7-5.6,2.8-11.8,3.4-12.4c-0.6,0-3.9,2.8-5.6,9c-1.1,4.5,0.6,11.3,0.6,11.8c-0.6,0-5.6-2.3-11.3-6.2s-4.5-13-4.5-13
		c-3.4,6.8,2.3,12.4,2.3,12.4C14,45.1,10,51.8,9.5,52.4c7.9-4.5,16.9,0,16.9,0c-1.1,0-2.8,2.3-5.6,4.5c-2.3,2.3-5.6,1.7-5.6,1.7
		c2.3,1.1,5.1,0.6,6.8-1.1c2.3-1.7,2.8-3.4,5.6-3.9c3.4-0.6,9.6,5.1,9.6,5.1s-1.1,0-5.1,2.8c-3.9,2.8-4.5,5.1-6.8,4.5
		c-6.2-1.1-8.5,1.1-8.5,1.1c4.5-1.1,9.6,0,9.6,0c-0.6,4.5-5.6,7.9-5.6,7.9s4.5-1.1,6.2-4.5c1.7-2.8,1.7-4.5,7.3-7.9
		s8.5-1.1,11.3,1.1c6.2,5.1,7.3,12.4,4.5,16.3s-8.5,6.2-15.2,1.7c-7.3-4.5-12.4-2.3-12.4-2.3c6.2-1.1,11.3,3.9,11.3,3.9
		c-2.3,1.7-8.5,1.1-15.8-3.4c-7.3-4.4-11.8-1.6-11.8-1.6c6.8-0.6,13,5.1,13,5.1s-5.6-0.6-9.6,0.6c-6.8,2.3-9,7.3-9.6,7.9
		c8.4-10.8,32.7-4.6,32.7-4.6c-4.5,0-9,3.9-11.8,9.6c-1.7,3.9-4.5,5.1-5.6,5.6c5.1-0.6,7.3-3.9,8.5-7.3c1.7-3.4,4.5-4.5,4.5-4.5
		s-1.1,1.1,0,3.4s0.6,3.9,0.6,4.5c2.3-3.4,0-5.1,1.7-7.9c1.7-3.4,4.5-2.3,13.5-4.5c4.5-1.7,8.5-1.1,15.8,2.8c9,4.5,6.8,9,2.8,15.8
		c-3.4,6.8-7.9,6.8-14.1,5.1c-6.8-1.1-10.7,3.4-10.7,3.4c8.5-4.5,13,0,13,0s-1.7,0.6-3.9,3.4c-2.8,3.9-6.8,5.1-12.4,5.6
		c-3.9,0.6-5.6,2.3-6.2,3.9c0.6-0.6,1.1-1.1,2.8-1.7c2.8-1.1,7.3,0.6,11.8-2.3c3.9-2.3,5.1-3.4,5.1-3.4c0,3.9-2.3,7.3-2.3,7.3
		c3.9-2.8,2.3-7.9,5.1-10.7c2.3-2.3,6.8-2.3,6.8-2.3s-2.3,3.9-2.3,7.9s-0.6,5.6-3.9,8.5c-3.4,2.3-2.3,5.6-2.3,5.6
		c0.6-2.3,2.3-4.5,4.5-6.2c1.7-1.7,2.8-4.5,2.8-5.1c0,0.6,0,2.3,1.7,5.1c2.3,3.4,1.7,6.8,1.7,7.3c3.9-5.1-2.3-12.4-1.1-18.6
		c1.1-5.6,4.5-10.1,4.5-10.1c0,1.7,0,4.5,4.5,7.9c3.9,3.9,4.5,7.9,4.5,7.9c1.1-7.3-6.2-7.3-7.3-15.2v-0.6c0-4.5,4.5-10.1,9-12.4
		c2.3-0.6,3.9-1.1,5.6-0.6c0.6,0,0.6,0,0.6,0c0.6,0,0.6,0,1.1,0c1.1-0.6,2.8-1.1,4.5-1.7c2.8-1.1,5.1-2.8,7.3-4.5l0.6-0.6
		c0.6-2.3,1.7-3.9,2.8-5.1c0.6-0.6,1.1-1.1,1.7-1.1c5.6-2.8,15.2-0.6,23.1,5.1c9,6.2,7.3,11.8,7.3,11.8c2.8-4.5,0-7.9-0.6-8.5
		c4.5,2.3,8.5-0.6,9.6-1.7c-1.1,0.6-7.9,2.8-14.1-2.3c-3.4-2.8-5.6-3.9-6.8-4.5c2.3-0.6,5.6-2.3,6.2-2.3c3.9-0.6,7.3,1.7,7.3,1.7
		c-1.7-2.3-3.9-2.8-6.2-2.8c0.6-0.6,2.3-3.4,2.8-3.9l0,0c0.6-0.6,1.7-1.7,2.8-2.3c4.5-3.4,10.1-2.3,10.1-2.3
		C134.7,67,129.6,69.3,127.4,71.5z M84.5,80.6c-1.1,1.7-2.8,2.8-4.5,3.4c-0.6,0-1.1,0.6-1.7,0.6c0,0-0.6,0-1.1,0c-0.6,0-0.6,0-1.1,0
		c-0.6,0-0.6,0-1.1,0s-1.1,0-1.7,0c-1.7-0.6-3.4-1.1-5.1-2.3c-5.1-3.4-7.9-7.9-7.9-12.4c0-3.4,1.1-6.2,3.9-8.5
		c1.1-1.1,3.9-1.7,6.8-1.7s9.6,0.6,13,7.9C86.8,74.4,85.7,78.3,84.5,80.6z"/>
</g>
</svg>
