<?xml version="1.0" encoding="utf-8"?>
<!-- Generator: Adobe Illustrator 25.0.0, SVG Export Plug-In . SVG Version: 6.00 Build 0)  -->
<svg version="1.1" id="Layer_1" xmlns="http://www.w3.org/2000/svg" xmlns:xlink="http://www.w3.org/1999/xlink" x="0px" y="0px"
	 viewBox="0 0 18.6 19.3" style="enable-background:new 0 0 18.6 19.3;" xml:space="preserve">
<style type="text/css">
	.st0{fill:#50AE5A;}
</style>
<g>
	<path class="st0" d="M8.8,9.1c-1.6,1.3-0.8,3.1-1.1,5.6c-0.5,3.7,1.2,5.1,2.8,4.4s1.5-3,3-4.1l0,0l0,0c1.4-1.1,3.6-0.5,4.7-1.9
		s0.1-3.4-3.6-3.8C11.9,9,10.4,7.8,8.8,9.1z"/>
	<ellipse transform="matrix(0.2701 -0.9628 0.9628 0.2701 -10.0479 12.8058)" class="st0" cx="3.4" cy="13" rx="2.2" ry="3.5"/>
	
		<ellipse transform="matrix(0.9992 -3.960014e-02 3.960014e-02 0.9992 -0.1744 0.5543)" class="st0" cx="13.9" cy="4.7" rx="2.2" ry="3.5"/>
	<ellipse transform="matrix(0.664 -0.7478 0.7478 0.664 -4.0103 4.8317)" class="st0" cx="3.4" cy="6.9" rx="2.4" ry="3.6"/>
	<ellipse transform="matrix(0.8813 -0.4726 0.4726 0.8813 -0.6549 4.1337)" class="st0" cx="7.9" cy="3.4" rx="2.4" ry="3.6"/>
</g>
</svg>
