<?xml version="1.0" encoding="utf-8"?>
<!-- Generator: Adobe Illustrator 25.0.0, SVG Export Plug-In . SVG Version: 6.00 Build 0)  -->
<svg version="1.1" id="Layer_1" xmlns="http://www.w3.org/2000/svg" xmlns:xlink="http://www.w3.org/1999/xlink" x="0px" y="0px"
	 viewBox="0 0 18.4 20.6" style="enable-background:new 0 0 18.4 20.6;" xml:space="preserve">
<style type="text/css">
	.st0{fill:#FFFFFF;}
</style>
<g>
	<path class="st0" d="M3.8,9.5c0.1-0.6,0.4-1,0.4-1.1c0.1-0.2,0.3-0.2,0.5-0.1C4.9,8.5,5,8.7,4.9,8.9c-0.2,0.3-0.4,1-0.3,1.6
		c0.1,0.6,0.3,1.1,1.3,1.3c0.7,0.1,0.7,0.6,0.8,1c0.1,0.4,0.1,0.9,0.7,1.5c0.2,0.2,0.6,0.4,0.9,0.6c0.2,0.1,0.3,0.2,0.5,0.3
		c0.3-0.5,0.5-1.5,0.5-2c0-0.7-0.3-1.4-0.7-1.9L8.5,11l0-0.1c0.1-0.3,0.1-0.5,0.1-0.8c-0.1,0-0.3,0.1-0.5,0.1
		c-0.7,0-1.2-0.3-1.6-0.7C5.9,8.6,6,7.8,6,7.4c0-0.4,0.1-0.8,0.1-1.3C6.2,5.3,6.3,4.4,6.3,4C6,3,5.5,3,5.3,3C5.1,3,4.9,2.9,4.9,2.7
		c0-0.2,0.2-0.3,0.4-0.4c0.5,0,1.4,0.2,1.7,1.6c0.1,0.4,0,1.4-0.1,2.3C6.8,6.6,6.8,7,6.8,7.4c0,0.4-0.1,1.1,0.3,1.6
		c0.2,0.3,0.6,0.4,1.1,0.5c0.2,0,0.6-0.2,0.8-0.5C9.1,8.6,9.1,8.3,9.1,8c0-0.4-0.2-0.9-0.5-1.2L8.5,6.6l0.2-0.2C9,6,9.2,5.5,9.1,5
		c0-0.4-0.2-0.8-0.4-1.2L8.6,3.6l0.2-0.2C9.1,3,9.2,2.5,9.2,2c0-1.2-0.9-2-2-2C6.4,0,5.8,0.4,5.4,1.2c-0.8-0.2-1.8,0.5-2,1.2
		C3.2,3.1,3.4,4,4.3,5.1c0.1,0.2,0.3,0.3,0.4,0.4c0.2,0.1,0.2,0.3,0,0.5C4.7,6.1,4.6,6.1,4.5,6.1c-0.1,0-0.2,0-0.3-0.1
		C4,5.9,3.9,5.7,3.7,5.5C3,4.7,2.8,3.8,2.7,3.2c-1.4,1-1.6,2.7-0.9,3.7C1,8.1,2.2,9.6,3.8,9.5z"/>
	<path class="st0" d="M7.9,15.4c-0.4-0.2-0.7-0.4-1-0.7c-0.8-0.7-0.9-1.4-1-1.9c0-0.4-0.1-0.4-0.2-0.4c-0.6-0.1-1-0.3-1.3-0.5
		c-0.4,0.2-0.7,0.2-1,0.2c-0.9,0-1.7-0.4-1.7-0.4c-0.2-0.1-0.2-0.3-0.1-0.5C1.7,11.1,2,11,2.1,11.1c0,0,0.9,0.6,1.9,0.2
		c-0.1-0.2-0.3-0.6-0.3-1.1c-1.5,0-3-0.9-3-2.4c-2,2.9,0.4,5.7,3.1,6.4c0.7,0.2,1.3,0.9,1.3,1.7c0,0.1,0,0.3-0.1,0.6
		c0.3,0.1,0.6,0.2,1,0.3c-0.1-0.5,0-1,0-1c0-0.2,0.2-0.3,0.4-0.3c0.2,0,0.3,0.2,0.3,0.4c0,0-0.2,1.1,0.3,1.6
		c0.3,0.3,0.5,0.7,0.6,1.2c0,0.2-0.1,0.4-0.3,0.4c0,0,0,0,0,0c-0.2,0-0.3-0.1-0.4-0.3c-0.2-1.5-1.7-1.7-2.3-1.7
		c-0.2,0.2-0.6,0.5-1.1,0.7c0,0-0.1,0-0.1,0c-0.2,0-0.3-0.1-0.4-0.2c-0.1-0.2,0-0.4,0.2-0.4C4,16.9,4.4,16.5,4.4,16
		c0-0.5-0.3-0.9-0.8-1.1c-1.5-0.5-2.6-1.2-3.3-2.3c-0.9,2.3,1,3.3,2.3,3.1c0.2,0,0.4,0.1,0.4,0.3c0,0.2-0.1,0.4-0.3,0.4
		c-0.1,0-0.2,0-0.3,0c-0.4,0-0.8-0.1-1.1-0.2c-0.3,1.3,1,3.4,3.4,2.5c0.3,1.7,2.8,2.4,4.2,0.9C10.2,18.2,9.3,15.9,7.9,15.4z"/>
	<path class="st0" d="M9.7,4.8c0,0.1,0,0.2,0,0.3c0.3-0.4,0.6-0.7,0.8-0.9C10.6,4.1,10.7,4,10.8,4c0.8-0.6,1.2-0.9,1.1-1.9
		c0-0.2,0.1-0.3,0.3-0.4c0.2,0,0.4,0.1,0.4,0.3c0.1,1.4-0.5,1.8-1.3,2.5c-0.1,0.1-0.2,0.1-0.2,0.2c-0.3,0.3-0.7,0.7-1,1.1l0,0L10,6
		C9.8,6.3,9.8,6.6,9.8,6.9c0,0.3,0.1,0.6,0.2,0.9l0.1,0.1L10,8C9.9,8.4,9.8,8.8,9.8,9.2c0,0.3,0.1,0.6,0.2,0.9
		c0.3-0.3,0.6-0.6,1-0.8c0.6-0.3,1.3-0.5,1.8-0.4c0.7-0.8,1.7-1.3,2.8-1.3c0,0,0,0,0,0c0.6,0,1.9,0.2,2.4,0.9
		c0.2-1.3-0.2-2.4-1.6-2.7c0.3-1.1-0.4-2.1-1.1-2.5C15,4,14.6,4.5,14.2,4.8c0.2,0.2,0.6,0.8,0.6,1.5c0,0.2-0.2,0.3-0.3,0.3
		c0,0,0,0,0,0c-0.2,0-0.4-0.1-0.4-0.3c0-0.5-0.3-0.9-0.4-1.1C13,5.6,12.5,6,12.1,7c0,0.1-0.2,0.2-0.3,0.2c0,0-0.1,0-0.1,0
		c-0.2-0.1-0.3-0.2-0.2-0.4c0.4-1.3,1.2-1.8,1.9-2.3c0.6-0.4,1.1-0.7,1.3-1.5l0.1-0.3c0-0.2,0-0.3,0-0.5C14.7,1,13.6,0,12.2,0
		c-1.4,0-2.4,1.1-2.4,2.4C9.8,2.7,9.9,3,10,3.3l0.1,0.2L10,3.7C9.8,4,9.7,4.4,9.7,4.8z"/>
	<path class="st0" d="M18.2,13c-0.3,0.4-0.6,0.6-0.7,0.7c-0.1,0.1-0.1,0.1-0.2,0.1c-0.1,0-0.2,0-0.3-0.1c-0.1-0.1-0.1-0.3,0-0.5
		c0.2-0.1,0.5-0.5,0.7-0.8l0,0l0.1-0.2c0.3-0.5,0.4-1,0.4-1.5c0-0.7-0.3-1.4-0.9-1.9c0,0,0,0-0.1-0.1l0,0c-0.4-0.3-1.1-0.5-1.8-0.5
		c-0.5,0-1.6,0.2-2.4,1.2L13,9.6l-0.2-0.1c-0.2-0.1-0.8,0-1.4,0.3c-0.4,0.2-1,0.7-1.2,1.4c-0.3,1.2,0.6,1.9,0.9,2.1
		c0.2,0.1,0.2,0.3,0.1,0.5C11.2,13.9,11.1,14,11,14c-0.1,0-0.1,0-0.2,0c-0.3-0.1-0.6-0.4-0.9-0.8c-0.1,0.3-0.1,0.5-0.1,0.8
		c0,0.5,0.2,1,0.6,1.5l0.1,0.1c0.3,0.3,0.7,0.7,1,0.9c0.2,0.1,0.3,0.2,0.4,0.3c1,0.8,0.8,1.9,0.6,2.3c-0.1,0.1-0.2,0.2-0.3,0.2
		c-0.1,0-0.1,0-0.2,0c-0.2-0.1-0.2-0.3-0.1-0.4c0-0.1,0.4-0.8-0.4-1.5c-0.1-0.1-0.2-0.2-0.4-0.3c-0.2-0.2-0.5-0.4-0.8-0.7
		c0,0.1,0,0.2,0,0.3c0,0.3,0.1,0.5,0.2,0.7l0.1,0.2l-0.1,0.2c-0.2,0.3-0.3,0.7-0.3,1.1c0,1.1,1,2,2.2,2c0.8,0,1.6-0.5,1.9-1.2
		l0.1-0.1l0.1,0c0.4-0.1,0.7-0.4,1-0.7c-0.3,0-0.6-0.1-0.8-0.3c-0.5-0.3-0.8-0.8-0.8-1.3c-0.1-0.5,0.1-1,0.3-1.5
		c-0.3,0.1-0.6,0.2-0.9,0.2c-0.3,0-0.6,0-0.8-0.1c-0.2-0.1-0.3-0.3-0.2-0.4c0.1-0.2,0.3-0.3,0.5-0.2c0.4,0.1,1.6,0,2.1-0.7
		c0.4-0.8,0.6-1.2,0.4-1.6c-0.2-0.4-0.5-0.5-0.7-0.6c-0.4-0.1-0.9,0.1-1.3,0.4c-0.1,0.1-0.4,0.1-0.5,0c-0.1-0.1-0.1-0.3,0-0.5
		c0.4-0.4,1-0.6,1.6-0.6c0.2-0.6,0-1.2,0-1.2c0-0.2,0.1-0.4,0.3-0.4c0.2,0,0.4,0.1,0.4,0.2c0,0,0.2,0.8,0,1.5
		c0.4,0.2,0.7,0.5,0.8,0.9c0.3,0.8-0.1,1.6-0.8,2.7c0,0-0.6,1.1-0.5,1.8c0,0.3,0.2,0.6,0.5,0.8C16.9,18.8,19.2,15.6,18.2,13z"/>
</g>
</svg>
