<?xml version="1.0" encoding="utf-8"?>
<!-- Generator: Adobe Illustrator 25.0.0, SVG Export Plug-In . SVG Version: 6.00 Build 0)  -->
<svg version="1.1" id="Layer_1" xmlns="http://www.w3.org/2000/svg" xmlns:xlink="http://www.w3.org/1999/xlink" x="0px" y="0px"
	 viewBox="0 0 18.9 21.6" style="enable-background:new 0 0 18.9 21.6;" xml:space="preserve">
<style type="text/css">
	.st0{fill:#50AE5A;}
</style>
<path class="st0" d="M11.5,2c0,1.1-0.9,2-2,2s-2-0.9-2-2s0.9-2,2-2S11.5,0.8,11.5,2z M6.8,7.4L0.6,6.8C0.2,6.8-0.1,6.4,0,6
	c0-0.4,0.4-0.6,0.7-0.6h17.5c0.4,0,0.7,0.3,0.7,0.7c0,0.4-0.3,0.7-0.6,0.7l-6.1,0.6v4.7l0.6,8.7c0,0.4-0.3,0.8-0.7,0.8
	c-0.4,0-0.7-0.2-0.8-0.6l-1.6-7.6c-0.1-0.3-0.6-0.3-0.7,0l-1.4,7.7c-0.1,0.4-0.5,0.6-0.9,0.5s-0.6-0.4-0.6-0.8l0.6-8.7L6.8,7.4
	L6.8,7.4z"/>
</svg>
