<svg width="536" height="162" viewBox="0 0 536 162" fill="none" xmlns="http://www.w3.org/2000/svg">
<g clip-path="url(#clip0_1_42)">
<path d="M88.8 62.5C88.8 69 87.2 74.5 83.9 79C80.8 83.4 77.2 85.6 73.1 85.6H53V42.4H73.8C77.2 42.4 80.5 44 83.5 47.3C87 51.2 88.8 56.3 88.8 62.5ZM79.8 63.2C79.8 59.7 79.1 56.6 77.6 54C76.1 51.2 74.1 49.8 71.8 49.8H61.8V78.1H70C72.9 78.1 75.2 76.8 77.1 74.1C78.9 71.5 79.8 67.8 79.8 63.2Z" fill="#70C168"/>
<path d="M103.5 49.8H95.2V42.4H103.5V49.8ZM103.5 85.6H95.2V53.5H103.5V85.6Z" fill="white"/>
<path d="M139.5 53.5L128.4 85.6H119.7L108.6 53.5H117.4L124.1 77L130.8 53.5H139.5Z" fill="white"/>
<path d="M171.9 69.6C171.9 70.5 171.8 71.4 171.7 72.1H150.4C150.3 72.3 150.3 72.7 150.3 73.2C150.3 75.3 150.9 77 152.2 78.3C153.5 79.6 155.2 80.2 157.3 80.2C158.7 80.2 159.9 79.8 161.1 79C162.2 78.2 162.8 77.4 163.1 76.5H171.5C170.4 79.6 168.4 82.1 165.7 84C163 85.9 159.8 86.8 156.4 86.8C152.6 86.8 149.3 85.6 146.7 83.2C143.6 80.3 142 76.2 142 70.8C142 65 143.3 60.6 145.8 57.5C148.3 54.4 151.9 52.8 156.6 52.8C161.2 52.8 164.9 54.3 167.7 57.4C170.5 60.6 171.9 64.6 171.9 69.6ZM163.1 66.6C162.9 62.1 160.8 59.9 156.9 59.9C152.9 59.9 150.8 62.1 150.3 66.6H163.1Z" fill="white"/>
<path d="M195.6 61.3C194.5 61.2 193.7 61.1 193.2 61.1C190.9 61.1 189 61.7 187.7 63C186.4 64.2 185.7 65.8 185.7 67.7V85.5H177.4V53.4H185.7V59.6C186.3 57.7 187.5 56.1 189.3 54.8C191.1 53.5 192.9 52.8 194.6 52.8C194.8 52.8 195.1 52.8 195.6 52.9V61.3Z" fill="white"/>
<path d="M227.6 75.8C227.6 79.1 226.4 81.8 223.9 83.9C221.4 86 218.2 87 214.2 87C209.3 87 205.5 86.1 202.8 84.2C200.1 82.3 198.7 79.6 198.5 76.2H206.7C207 77.8 208.1 79 209.8 79.8C211.2 80.5 212.8 80.8 214.7 80.8C215.9 80.8 216.9 80.5 217.8 79.8C218.6 79.1 219 78.3 219 77.4C219 76.5 218.7 75.7 218.2 75.3C217.8 75 216.8 74.6 215.3 74.2L205.9 71.5C201.7 70.3 199.7 67.5 199.7 63.2C199.7 60.2 200.9 57.7 203.3 55.9C205.7 54 209 53.1 213.1 53.1C217.2 53.1 220.5 54.1 223 56.1C225.5 58.1 226.8 60.7 226.8 64H218.8C218.9 62.6 218.4 61.5 217.3 60.7C216.2 59.9 214.6 59.4 212.4 59.4C211.2 59.4 210.2 59.7 209.3 60.2C208.2 60.8 207.7 61.6 207.7 62.5C207.7 63.6 208.1 64.2 208.8 64.4L220.7 67.7C225.2 68.8 227.6 71.5 227.6 75.8Z" fill="white"/>
<path d="M260.9 69.6C260.9 70.5 260.8 71.4 260.7 72.1H239.4C239.3 72.3 239.3 72.7 239.3 73.2C239.3 75.3 239.9 77 241.2 78.3C242.5 79.6 244.2 80.2 246.3 80.2C247.7 80.2 248.9 79.8 250.1 79C251.2 78.2 251.8 77.4 252.1 76.5H260.5C259.4 79.6 257.4 82.1 254.7 84C251.9 85.9 248.8 86.8 245.4 86.8C241.6 86.8 238.3 85.6 235.7 83.2C232.6 80.3 231 76.2 231 70.8C231 65 232.3 60.6 234.8 57.5C237.3 54.4 240.9 52.8 245.6 52.8C250.2 52.8 253.9 54.3 256.7 57.4C259.5 60.6 260.9 64.6 260.9 69.6ZM252.1 66.6C251.9 62.1 249.8 59.9 245.9 59.9C241.9 59.9 239.8 62.1 239.3 66.6H252.1Z" fill="white"/>
<path d="M303.5 42.4L288.8 85.6H281.2L266.6 42.4H275.6L285 74.9L294.5 42.4H303.5Z" fill="#70C168"/>
<path d="M317 49.8H308.7V42.4H317V49.8ZM317 85.6H308.7V53.5H317V85.6Z" fill="white"/>
<path d="M339 86.2C337.1 86.7 335.3 86.9 333.7 86.9C331.6 86.9 329.8 86.3 328.3 85C326.8 83.7 326 82.2 326 80.4V59.6H322V54.1H326.1V45.4H334.4V54.1H339V59.6H334.4V78.8C334.4 80 335.3 80.6 337.2 80.6C337.6 80.6 338.2 80.5 339 80.5V86.2Z" fill="white"/>
<path d="M372 85.6H363.2C362.8 85 362.5 83.9 362.3 82.5C359.3 85.5 355.8 87.1 352 87.1C348.9 87.1 346.6 86.2 344.9 84.5C343.3 82.8 342.5 80.3 342.5 77.2C342.5 74.6 343.3 72.4 344.8 70.5C346.3 68.6 348.4 67.5 351 67.1C352.2 66.9 354.3 66.7 357.2 66.3C358.9 66 360.2 65.6 361 65C361.8 64.4 362.2 63.5 362.3 62.2C362.4 60 360.7 58.9 357.1 58.9C353.4 58.9 351.5 60.6 351.3 64.1H343.4C343.6 60.3 344.7 57.5 346.8 55.7C348.9 53.9 352.2 52.9 356.7 52.9C365.6 52.9 370 56.3 370 63.2V80.9C370 82.3 370.6 83.5 371.8 84.5V85.6H372ZM362.3 71.6V70.4C361.1 71.1 359.9 71.5 358.7 71.6C355.8 72 353.9 72.4 352.9 72.9C351.5 73.6 350.8 74.8 350.8 76.5C350.8 79 352.3 80.2 355.4 80.2C360 80.1 362.3 77.3 362.3 71.6Z" fill="white"/>
<path d="M386.2 85.6H377.9V42.4H386.2V85.6Z" fill="white"/>
<path d="M402.6 49.8H394.3V42.4H402.6V49.8ZM402.6 85.6H394.3V53.5H402.6V85.6Z" fill="white"/>
<path d="M424.7 86.2C422.8 86.7 421 86.9 419.4 86.9C417.3 86.9 415.5 86.3 414 85C412.5 83.7 411.7 82.2 411.7 80.4V59.6H407.6V54.1H411.7V45.4H420V54.1H424.6V59.6H420V78.8C420 80 420.9 80.6 422.8 80.6C423.2 80.6 423.8 80.5 424.6 80.5V86.2H424.7Z" fill="white"/>
<path d="M458.5 53.5L444.7 92.7C443.5 96.1 440.9 97.9 437 98.2L431.5 98.6V91.8H432.7C436.7 91.8 438.7 90.1 438.7 86.8L427 53.4H436.2L443.1 76.7L449.8 53.4L458.5 53.5Z" fill="white"/>
<path d="M105.6 121.7C105.6 124 104.8 126 103.1 127.8C101.6 129.5 99.9 130.3 98.1 130.3H83.3V100.4H96.7C98.4 100.4 100 101 101.5 102.2C103.4 103.7 104.3 105.6 104.3 108C104.3 111.1 103 113.2 100.4 114.3C103.9 115.8 105.6 118.2 105.6 121.7ZM100.5 108.8C100.5 107.2 99.8 105.9 98.4 105C97.2 104.2 95.8 103.9 94.2 103.9H87.2V113.3H95.8C97 113.3 98.1 112.9 99 112.2C99.9 111.3 100.5 110.2 100.5 108.8ZM101.9 121.7C101.9 118.3 99.9 116.7 95.8 116.7H87.2V126.9H97.2C98.5 126.9 99.6 126.4 100.5 125.4C101.4 124.3 101.9 123.1 101.9 121.7Z" fill="#70C168"/>
<path d="M113.5 102.9H110V98.6H113.4L113.5 102.9ZM113.5 128.5H110V107H113.4L113.5 128.5Z" fill="#70C168"/>
<path d="M137.3 117.6C137.3 121.1 136.6 123.9 135.2 125.9C133.5 128.2 131 129.4 127.6 129.4C124.4 129.4 122 128.3 120.3 126.2C118.7 124.2 117.9 121.3 117.9 117.6C117.9 114.1 118.7 111.4 120.4 109.4C122.1 107.4 124.5 106.4 127.6 106.4C130.7 106.4 133.1 107.4 134.8 109.4C136.4 111.4 137.3 114.1 137.3 117.6ZM133.8 117.6C133.8 115.2 133.2 113.2 132 111.8C130.9 110.5 129.4 109.8 127.7 109.8C126 109.8 124.5 110.5 123.4 111.8C122.2 113.2 121.6 115.2 121.6 117.6C121.6 120.1 122.2 122.2 123.3 123.7C124.4 125.2 125.9 126 127.8 126C129.7 126 131.2 125.2 132.3 123.7C133.2 122.2 133.8 120.1 133.8 117.6Z" fill="#70C168"/>
<path d="M159.4 128.5H156.4V126.1C155 127.5 153.9 128.4 153.1 128.8C152.3 129.2 151.1 129.4 149.8 129.4C146.8 129.4 144.4 128.4 142.8 126.3C141.1 124.3 140.3 121.4 140.3 117.8C140.3 114.4 141.1 111.6 142.8 109.5C144.5 107.4 146.7 106.3 149.4 106.3C152.1 106.3 154.3 107.4 156 109.5V98.6H159.4V128.5ZM156 118.2C156 112.7 153.8 109.9 149.4 109.9C147.7 109.9 146.4 110.6 145.5 112.1C144.5 113.6 144.1 115.5 144.1 117.8C144.1 120.3 144.6 122.4 145.7 123.9C146.8 125.4 148.2 126.2 150.1 126.2C151.9 126.2 153.4 125.5 154.4 124.1C155.5 122.7 156 120.7 156 118.2Z" fill="#70C168"/>
<path d="M168.1 102.9H164.7V98.6H168.1V102.9ZM168.1 128.5H164.7V107H168.1V128.5Z" fill="#70C168"/>
<path d="M190.9 107L182.7 128.5H179L171.5 107H175.3L180.9 124.4L187.1 107H190.9Z" fill="#70C168"/>
<path d="M212.5 117.8C212.5 118.3 212.5 118.7 212.5 119.1H196.9C196.9 119.3 196.9 119.6 196.9 119.9C196.9 121.6 197.5 123.1 198.7 124.4C199.9 125.7 201.3 126.4 202.9 126.4C205.7 126.4 207.7 124.9 208.7 121.9H212.2C211.1 126.9 208.1 129.4 203.3 129.4C196.6 129.4 193.3 125.5 193.3 117.8C193.3 114.5 194.2 111.7 196 109.6C197.8 107.5 200.2 106.4 203 106.4C205.8 106.4 208.1 107.3 209.7 109C211.5 111 212.5 113.9 212.5 117.8ZM208.9 116.1C208.5 111.5 206.5 109.2 203.1 109.2C199.5 109.2 197.5 111.5 197 116.1H208.9Z" fill="#70C168"/>
<path d="M227.4 110C225.3 110 223.6 110.5 222.4 111.6C221.1 112.7 220.5 114.4 220.5 116.5V128.5H217.1V107H220.5V110.4C221.9 107.7 223.8 106.3 226.4 106.3C226.6 106.3 226.9 106.3 227.4 106.4V110Z" fill="#70C168"/>
<path d="M246.7 122.6C246.7 124.7 245.9 126.4 244.3 127.6C242.7 128.8 240.6 129.4 238.1 129.4C234.9 129.4 232.6 128.8 231.3 127.5C230.1 126.4 229.5 124.6 229.4 122.2H232.7C232.7 123.6 233.3 124.8 234.5 125.6C235.5 126.3 236.7 126.6 238.1 126.6C239.7 126.6 240.9 126.3 241.9 125.7C242.9 125.1 243.4 124.2 243.4 123.1C243.4 121.6 242.5 120.6 240.6 120.1L235.2 118.8C233.2 118.3 231.7 117.5 230.9 116.4C230.2 115.5 229.9 114.3 229.9 112.7C229.9 110.8 230.7 109.2 232.2 108.1C233.7 107 235.7 106.4 238.2 106.4C240.5 106.4 242.4 107 243.7 108.1C245 109.2 245.7 110.9 245.8 113H242.4C242.3 110.7 240.7 109.6 237.6 109.6C236.5 109.6 235.4 109.9 234.5 110.5C233.6 111.1 233.1 111.9 233.1 112.9C233.1 114.2 234.1 115.1 236.1 115.6L241.7 117C245.1 117.8 246.7 119.7 246.7 122.6Z" fill="#70C168"/>
<path d="M269.4 117.8C269.4 118.3 269.4 118.7 269.4 119.1H253.8C253.8 119.3 253.8 119.6 253.8 119.9C253.8 121.6 254.4 123.1 255.6 124.4C256.8 125.7 258.2 126.4 259.8 126.4C262.6 126.4 264.6 124.9 265.6 121.9H269.1C268 126.9 265 129.4 260.2 129.4C253.5 129.4 250.2 125.5 250.2 117.8C250.2 114.5 251.1 111.7 252.9 109.6C254.7 107.5 257.1 106.4 259.9 106.4C262.7 106.4 265 107.3 266.6 109C268.4 111 269.4 113.9 269.4 117.8ZM265.8 116.1C265.4 111.5 263.4 109.2 260 109.2C256.4 109.2 254.4 111.5 253.9 116.1H265.8Z" fill="#70C168"/>
<path d="M308 120.4C308 123.1 306.9 125.2 304.8 126.9C302.6 128.6 299.8 129.4 296.2 129.4C292.4 129.4 289.6 128.5 287.6 126.7C285.6 124.9 284.6 122.3 284.6 119H288.1C288.3 121.5 289.1 123.2 290.5 124.4C291.9 125.5 294.1 126.1 297 126.1C299.1 126.1 300.8 125.6 302.1 124.5C303.4 123.5 304 122.1 304 120.5C304 118.4 302.5 116.9 299.6 116.2L291.5 114.1C287.5 113 285.5 110.7 285.5 107C285.5 104.4 286.4 102.3 288.3 100.6C290.1 99 292.6 98.2 295.6 98.2C303.1 98.2 307 101.3 307.1 107.4H303.5C303.4 105.4 302.6 103.8 301.2 102.8C299.9 101.9 298.2 101.4 296 101.4C294.1 101.4 292.5 101.9 291.2 102.9C289.9 103.9 289.3 105.1 289.3 106.6C289.3 108.6 290.6 109.9 293.2 110.6L302.5 113.1C304.1 113.5 305.4 114.4 306.5 115.8C307.4 117 308 118.6 308 120.4Z" fill="#70C168"/>
<path d="M330.8 117.6C330.8 121.1 330.1 123.9 328.7 125.9C327 128.2 324.5 129.4 321.1 129.4C317.9 129.4 315.5 128.3 313.8 126.2C312.2 124.2 311.4 121.3 311.4 117.6C311.4 114.1 312.2 111.4 313.9 109.4C315.6 107.4 318 106.4 321.1 106.4C324.2 106.4 326.6 107.4 328.3 109.4C329.9 111.4 330.8 114.1 330.8 117.6ZM327.2 117.6C327.2 115.2 326.6 113.2 325.4 111.8C324.3 110.5 322.8 109.8 321.1 109.8C319.3 109.8 317.9 110.5 316.8 111.8C315.6 113.2 315 115.2 315 117.6C315 120.1 315.6 122.2 316.7 123.7C317.8 125.2 319.3 126 321.2 126C323.1 126 324.6 125.2 325.7 123.7C326.7 122.2 327.2 120.1 327.2 117.6Z" fill="#70C168"/>
<path d="M338.9 128.5H335.5V98.6H338.9V128.5Z" fill="#70C168"/>
<path d="M361.5 128.5H358V126.1C357.2 127.3 356.3 128.1 355.3 128.6C354.3 129.1 352.8 129.4 351 129.4C348.3 129.4 346.4 128.5 345.3 126.8C344.7 125.8 344.4 124.8 344.4 123.6V107H347.8V122.8C347.8 123.8 348.2 124.6 348.9 125.3C349.7 126 350.6 126.3 351.8 126.3C353.5 126.3 355 125.7 356.2 124.4C357.4 123.1 358 121.6 358 119.8V107H361.4V128.5H361.5Z" fill="#70C168"/>
<path d="M374.9 129.2C373.9 129.4 372.9 129.5 372 129.5C370.8 129.5 369.8 129.2 369.1 128.5C368.4 127.9 368.1 127.2 368.1 126.4V110.2H365.1V107H368.1V101.2H371.5V107H374.9V110.2H371.5V125.4C371.5 126.1 372 126.4 373 126.4C373.4 126.4 374 126.3 374.9 126.2V129.2Z" fill="#70C168"/>
<path d="M382 102.9H378.6V98.6H382V102.9ZM382 128.5H378.6V107H382V128.5Z" fill="#70C168"/>
<path d="M405.9 117.6C405.9 121.1 405.2 123.9 403.8 125.9C402.1 128.2 399.6 129.4 396.2 129.4C393 129.4 390.6 128.3 388.9 126.2C387.3 124.2 386.5 121.3 386.5 117.6C386.5 114.1 387.3 111.4 389 109.4C390.7 107.4 393.1 106.4 396.2 106.4C399.3 106.4 401.7 107.4 403.4 109.4C405 111.4 405.9 114.1 405.9 117.6ZM402.4 117.6C402.4 115.2 401.8 113.2 400.6 111.8C399.5 110.5 398 109.8 396.3 109.8C394.5 109.8 393.1 110.5 392 111.8C390.8 113.2 390.2 115.2 390.2 117.6C390.2 120.1 390.8 122.2 391.9 123.7C393 125.2 394.5 126 396.4 126C398.3 126 399.8 125.2 400.9 123.7C401.8 122.2 402.4 120.1 402.4 117.6Z" fill="#70C168"/>
<path d="M427.7 128.5H424.3V112.9C424.3 112.1 423.9 111.3 423 110.6C422.2 109.9 421.1 109.6 419.9 109.6C418.2 109.6 416.8 110.2 415.7 111.5C414.6 112.7 414.1 114.3 414.1 116.2V128.6H410.7V107.1H414.1V109.9C415.6 107.6 417.7 106.5 420.4 106.5C423 106.5 425 107.2 426.2 108.5C427.2 109.5 427.7 110.8 427.7 112.4V128.5Z" fill="#70C168"/>
<path d="M449.3 122.6C449.3 124.7 448.5 126.4 446.9 127.6C445.3 128.8 443.2 129.4 440.7 129.4C437.5 129.4 435.2 128.8 433.9 127.5C432.7 126.4 432.1 124.6 432 122.2H435.3C435.3 123.6 435.9 124.8 437.1 125.6C438.1 126.3 439.3 126.6 440.7 126.6C442.3 126.6 443.5 126.3 444.5 125.7C445.5 125.1 446 124.2 446 123.1C446 121.6 445.1 120.6 443.2 120.1L437.8 118.8C435.8 118.3 434.3 117.5 433.5 116.4C432.8 115.5 432.5 114.3 432.5 112.7C432.5 110.8 433.3 109.2 434.8 108.1C436.3 107 438.3 106.4 440.8 106.4C443.1 106.4 445 107 446.3 108.1C447.6 109.2 448.3 110.9 448.4 113H445C444.9 110.7 443.3 109.6 440.2 109.6C439.1 109.6 438 109.9 437.1 110.5C436.2 111.1 435.7 111.9 435.7 112.9C435.7 114.2 436.7 115.1 438.7 115.6L444.3 117C447.7 117.8 449.3 119.7 449.3 122.6Z" fill="#70C168"/>
<path d="M481.5 40.7109C481.5 41.9688 481.281 43.1445 480.844 44.2383C480.406 45.3242 479.777 46.2734 478.957 47.0859C478.145 47.8984 477.188 48.5234 476.086 48.9609C474.992 49.3984 473.824 49.6172 472.582 49.6172C471.355 49.6172 470.199 49.4062 469.113 48.9844C468.035 48.5625 467.082 47.9531 466.254 47.1562C465.434 46.3516 464.797 45.3945 464.344 44.2852C463.891 43.1758 463.664 41.9844 463.664 40.7109C463.664 39.4375 463.891 38.2461 464.344 37.1367C464.797 36.0273 465.438 35.0742 466.266 34.2773C467.094 33.4727 468.047 32.8594 469.125 32.4375C470.203 32.0156 471.355 31.8047 472.582 31.8047C473.824 31.8047 474.992 32.0234 476.086 32.4609C477.188 32.8984 478.145 33.5234 478.957 34.3359C479.777 35.1484 480.406 36.1016 480.844 37.1953C481.281 38.2812 481.5 39.4531 481.5 40.7109ZM479.742 40.7109C479.742 39.2891 479.438 38.0117 478.828 36.8789C478.227 35.7383 477.375 34.8516 476.273 34.2188C475.172 33.5859 473.938 33.2695 472.57 33.2695C471.203 33.2695 469.973 33.582 468.879 34.207C467.785 34.832 466.934 35.7188 466.324 36.8672C465.723 38.0078 465.422 39.2891 465.422 40.7109C465.422 42.1406 465.723 43.4297 466.324 44.5781C466.934 45.7188 467.785 46.6016 468.879 47.2266C469.973 47.8516 471.203 48.1641 472.57 48.1641C473.945 48.1641 475.184 47.8477 476.285 47.2148C477.387 46.582 478.238 45.6953 478.84 44.5547C479.441 43.4141 479.742 42.1328 479.742 40.7109ZM472.395 45.8086H467.953V45.0938C468.25 45.0234 468.453 44.9453 468.562 44.8594C468.672 44.7656 468.746 44.6445 468.785 44.4961C468.824 44.3477 468.844 44.0781 468.844 43.6875V37.6523C468.844 37.2695 468.824 37.0039 468.785 36.8555C468.746 36.707 468.672 36.5898 468.562 36.5039C468.461 36.4102 468.258 36.3242 467.953 36.2461V35.5312H472.781C474.203 35.5312 475.234 35.7539 475.875 36.1992C476.516 36.6445 476.836 37.3125 476.836 38.2031C476.836 38.8281 476.637 39.3789 476.238 39.8555C475.84 40.3242 475.25 40.6992 474.469 40.9805V41.1328C474.906 41.2969 475.266 41.5352 475.547 41.8477C475.828 42.1523 476.074 42.5586 476.285 43.0664L476.648 43.9219C476.773 44.2188 476.887 44.4414 476.988 44.5898C477.09 44.7305 477.207 44.8438 477.34 44.9297C477.473 45.0078 477.648 45.0625 477.867 45.0938V45.8086H474.844C474.672 45.5352 474.516 45.2695 474.375 45.0117C474.242 44.7461 474.102 44.4336 473.953 44.0742L473.367 42.668C473.297 42.4961 473.211 42.3242 473.109 42.1523C473.008 41.9805 472.895 41.8438 472.77 41.7422C472.652 41.6406 472.52 41.5742 472.371 41.543C472.223 41.5117 472.023 41.4961 471.773 41.4961H471.41V43.6875C471.41 44.0234 471.434 44.2773 471.48 44.4492C471.527 44.6133 471.613 44.7461 471.738 44.8477C471.871 44.9414 472.09 45.0234 472.395 45.0938V45.8086ZM471.41 36.6797V40.3828H472.055C472.5 40.3828 472.867 40.332 473.156 40.2305C473.445 40.1211 473.672 39.9805 473.836 39.8086C474.008 39.6289 474.125 39.4219 474.188 39.1875C474.25 38.9453 474.281 38.6914 474.281 38.4258C474.281 37.8477 474.125 37.4102 473.812 37.1133C473.5 36.8086 472.996 36.6562 472.301 36.6562C471.957 36.6562 471.66 36.6641 471.41 36.6797Z" fill="white"/>
</g>
<defs>
<clipPath id="clip0_1_42">
<rect width="430.3" height="98.3" fill="white" transform="translate(53 32)"/>
</clipPath>
</defs>
</svg>
