<?xml version="1.0" encoding="utf-8"?>
<!-- Generator: Adobe Illustrator 25.0.0, SVG Export Plug-In . SVG Version: 6.00 Build 0)  -->
<svg version="1.1" id="Layer_1" xmlns="http://www.w3.org/2000/svg" xmlns:xlink="http://www.w3.org/1999/xlink" x="0px" y="0px"
	 viewBox="0 0 140.5 108.8" style="enable-background:new 0 0 140.5 108.8;" xml:space="preserve">
<style type="text/css">
	.st0{fill:#50AE5A;}
</style>
<g>
	<path class="st0" d="M107,6c-10.8,1.8-22.1,6-29.3,14.3c-4.8,5.4-7.2,12-9,18.5c-0.6-6-1.8-11.4-4.8-16.7
		C58.6,11.4,47.2,4.8,35.3,2.4S11.4,1.2,0,3.6C2.4,4.2,4.8,6,6.6,7.8c2.4,2.4,4.2,4.8,5.4,7.8c2.4,5.4,3,11.4,4.2,17.3
		c0.6,3,1.2,5.4,2.4,8.4c1.2,3,2.4,5.4,4.8,7.8c5.4,6,14.3,8.4,22.7,7.8c6.6-0.6,13.2-2.4,19.7-5.4l0,0c0,3,1.2,6,1.8,9.6
		c1.8,7.8,3,16.1,2.4,24.5c0,7.2-1.2,14.3-3.6,21.5l13.2,1.8c0.6-1.8,0.6-3.6,0.6-5.4c0-10.2,0.6-20.9-1.2-31.1
		c-1.2-7.8-3-16.1-6.6-22.7c6-2.4,13.7-1.8,20.3-0.6c9,1.2,18.5,2.4,26.3-2.4c4.8-3,7.8-7.8,9.6-12.6c2.4-6,3-12,4.2-17.9
		s3.6-12,7.8-16.1C129.1,3.6,117.8,4.2,107,6z M65.8,49c-6,0-12-3-16.7-6.6c-6.6,1.2-13.7,0-19.7-3.6c5.4,0,10.8,0.6,16.7,0.6
		c-1.2-1.2-3-3-4.2-4.8c-0.6-1.2-1.8-1.8-2.4-3l0,0c-3,0.6-6,0-8.4-0.6c-2.4-0.6-5.4-1.8-7.2-3.6c3,0.6,5.4,1.2,8.4,1.2
		c1.8,0,3.6,0,6,0c-1.8-2.4-3-4.8-4.8-7.2c-2.4-3.6-5.4-6.6-8.4-9.6c3,1.2,5.4,3,7.8,4.8c1.8,1.8,4.2,4.8,6,7.2
		c-0.6-4.2-0.6-8.4-1.2-12.6c1.8,1.2,4.2,13.7,4.8,16.7c0,0,0,0,0,0.6c3,3.6,6,6.6,9.6,9.6c-0.6-1.8-1.2-3.6-1.2-6
		c-0.6-4.2,0-8.4,0.6-13.2c1.2,5.4,1.8,10.8,3,15.5c0.6,1.8,0.6,3.6,1.2,5.4C57.4,43.6,61.6,46,65.8,49c0.6-0.6,0.6,0,1.2,0H65.8z
		 M110,28.7c-1.8,1.2-3.6,2.4-5.4,3c4.8-0.6,9.6-1.2,14.3-1.8c-2.4,3-6,4.8-10.2,5.4c-3.6,0.6-7.2,0-10.8-0.6
		c-1.8,0.6-3,1.2-4.8,1.8c-2.4,1.2-4.2,1.8-6.6,3c8.4,1.2,16.1,1.2,24.5,0.6c-7.8,2.4-16.1,4.8-23.9,2.4c-1.2-0.6-2.4-1.2-3-1.8
		c-4.2,2.4-8.4,4.8-12.6,7.2c-0.6,0.6-1.2,1.2-1.8,1.2l0,0l0,0c0.6-0.6,1.2-1.2,1.2-1.8c1.8-1.8,3.6-3.6,5.4-4.8l0,0
		c4.2-6,9-12.6,13.2-18.5c-2.4,5.4-4.8,11.4-9,15.5c4.2-2.4,8.4-4.8,13.2-6.6c4.2-4.8,7.2-10.2,9.6-16.1c0,6-3,11.4-5.4,13.7
		c8.4-4.2,17.3-8.4,22.7-15.5C119.6,20.9,115.4,25.1,110,28.7z"/>
</g>
</svg>
