<?xml version="1.0" encoding="utf-8"?>
<!-- Generator: Adobe Illustrator 25.0.0, SVG Export Plug-In . SVG Version: 6.00 Build 0)  -->
<svg version="1.1" id="Layer_1" xmlns="http://www.w3.org/2000/svg" xmlns:xlink="http://www.w3.org/1999/xlink" x="0px"
	y="0px" viewBox="0 0 233.6 285.4" style="enable-background:new 0 0 233.6 285.4;" xml:space="preserve">
	<style type="text/css">
		.st0 {
			fill-rule: evenodd;
			clip-rule: evenodd;
			fill: #70C168;
		}

		.st1 {
			fill: #70C168;
		}

		.st2 {
			fill: #FFFFFF;
		}

		.st3 {
			fill: none;
		}

		.st4 {
			fill: #333333;
		}

		.st5 {
			fill: #70C168;
			stroke: #333333;
			stroke-width: 0.25;
			stroke-miterlimit: 10;
		}
	</style>
	<g>
		<g>
			<g>
				<path class="st0" d="M75.4,179.4c-4.2-3.5-10.1-3.1-13.4-1.7c-9,3.6-8.9,17.2-16.1,22.2c6-2.4,11.2-1.2,17.5-1.9
				c8.1-0.9,14.3-8.7,12.3-16.5c-3.9,0.6-8.1,2.4-11.2,5.5c-3.1,3.2-7.4,7.1-11.9,8.4c4.2-1.4,8.8-6.7,10.9-9.2
				C64.8,184.7,69.2,180.6,75.4,179.4z" />
				<path class="st0" d="M82.4,183.3c-1.6,0-2.8,1.1-3.3,2c-1.4,2.4,1.1,5.4,0.4,7.8c0.9-1.6,2.3-2.3,3.6-3.5
				c1.6-1.6,1.7-4.5-0.2-5.9c-0.8,0.8-1.4,2-1.5,3.2c-0.1,1.3-0.4,2.9-1.2,4c0.7-1.1,0.8-3.1,0.8-4
				C80.9,186.4,81.2,184.7,82.4,183.3z" />
				<path class="st0"
					d="M83.9,174.7c1-2.8-0.4-5.8-1.7-7.2c-3.6-3.9-10.6-1.2-14.6-3.9c2.4,2.6,2.8,5.5,4.4,8.6
				c2,4,7.3,5.7,10.9,3.1c-1.1-1.9-2.8-3.7-5-4.6c-2.3-1-5.1-2.4-6.6-4.5c1.5,1.9,5.2,3.2,6.9,3.8C79.1,170.3,82,171.8,83.9,174.7z" />
				<path class="st0" d="M90.5,182.2c-4.2,1.8-6.1,6.3-6.3,9.1c-0.6,7.8,9.8,12.4,11,19.3c0.4-5.2,3.2-8.5,5-13.4
				c2.3-6.2-1.4-13.4-8.1-14.6c-1,3-1.2,6.7,0.1,10c1.3,3.4,2.7,7.8,2,11.5c0.5-3.5-1.8-8.7-3-11.1
				C90.6,191.7,89.2,187.1,90.5,182.2z" />
				<path class="st0" d="M104.1,179.1c2.1,0.7,3.1,2.9,3.4,4.3c0.6,3.9-4.2,6.6-4.4,10.2c-0.4-2.6-1.9-4.1-2.9-6.5
				c-1.3-3,0.1-6.8,3.2-7.7c0.6,1.5,0.8,3.3,0.4,5c-0.5,1.8-1,4-0.5,5.9c-0.4-1.8,0.5-4.5,1-5.7
				C104.4,183.9,104.9,181.5,104.1,179.1z" />
				<path class="st0" d="M107.7,179.4c1.3-1.1,3.2-1,4.3-0.6c2.9,1.1,2.9,5.4,5.2,7c-1.9-0.8-3.6-0.4-5.6-0.6c-2.6-0.3-4.6-2.7-4-5.2
				c1.2,0.2,2.6,0.8,3.6,1.7c1,1,2.4,2.2,3.8,2.6c-1.4-0.4-2.8-2.1-3.5-2.9C111,181.1,109.6,179.8,107.7,179.4z" />
				<path class="st0" d="M86.4,163.3c-2.4,2.1-5.9,1.8-7.8,1.1c-5.3-2.1-5.3-10-9.5-12.9c3.5,1.4,6.5,0.7,10.2,1
				c4.7,0.5,8.4,5,7.3,9.6c-2.3-0.3-4.8-1.4-6.5-3.2c-1.8-1.9-4.4-4.1-7-4.8c2.5,0.8,5.2,3.9,6.4,5.3
				C80.1,160.2,82.7,162.6,86.4,163.3z" />
				<path class="st0" d="M60.8,126.6c2.1-1.6,2.6-4.4,2.3-6.1c-0.7-4.7-7.1-6.2-8.7-10.1c0.5,3.1-0.7,5.4-1.1,8.5
				c-0.5,3.9,2.5,7.8,6.4,7.7c0.2-1.9-0.2-4.1-1.3-5.9c-1.2-1.8-2.5-4.3-2.6-6.6c0.2,2.2,2.2,4.9,3.1,6.2
				C59.5,121,60.9,123.6,60.8,126.6z" />
				<path class="st0" d="M64.3,149.3c-3-2.5-7.1-2.2-9.5-1.2c-6.4,2.5-6.3,12.1-11.4,15.7c4.2-1.7,7.9-0.8,12.4-1.3
				c5.7-0.6,10.1-6.1,8.7-11.6c-2.8,0.4-5.8,1.7-7.9,3.9c-2.2,2.3-5.2,5-8.4,5.9c3-1,6.3-4.7,7.7-6.5
				C56.8,153,59.9,150.1,64.3,149.3z" />
				<path class="st0"
					d="M64.7,140.7c-0.3-2.2-2.2-3.8-3.5-4.3c-3.7-1.5-7.5,2.6-11.1,2.1c2.5,1,3.7,2.8,5.8,4.4
				c2.7,2,6.7,1.4,8.3-1.5c-1.3-0.9-3.1-1.6-4.9-1.5s-4.2,0-5.9-0.9c1.7,0.8,4.5,0.5,5.9,0.3C60.1,139.3,62.5,139.4,64.7,140.7z" />
				<path class="st0" d="M71.1,130c-3-0.7-4.8-3.5-5.4-5.4c-1.5-5.2,4.6-9.8,4.4-14.7c1,3.5,3.3,5.4,5.1,8.5c2.3,3.9,1,9.4-3.1,11.1
				c-1.1-1.9-1.7-4.4-1.3-6.9s0.6-5.7-0.3-8.2c0.8,2.4,0,6.2-0.4,8C69.8,123.5,69.5,126.8,71.1,130z" />
				<path class="st0" d="M53.8,94.6c-0.2-4.4-3.7-7.7-6.3-8.9c-7.1-3.4-15,4.1-21.9,2.6c4.7,2.2,6.8,6,10.7,9.3
				c4.9,4.3,13,3.7,16.5-1.7c-2.5-2-5.9-3.5-9.4-3.6c-3.6-0.1-8.2-0.5-11.5-2.5c3.1,1.8,8.8,1.6,11.4,1.5
				C44.9,91.2,49.7,91.6,53.8,94.6z" />
				<path class="st0" d="M88.6,118.8c0.5-1.9-0.4-3.7-1.3-4.6c-2.4-2.4-6.8-0.5-9.5-2.1c1.6,1.6,2,3.5,3.1,5.4
				c1.4,2.5,4.9,3.4,7.1,1.7c-0.7-1.2-1.9-2.3-3.4-2.8c-1.5-0.6-3.4-1.4-4.4-2.7c1,1.2,3.4,1.9,4.5,2.3
				C85.3,116.1,87.3,116.9,88.6,118.8z" />
				<path class="st0" d="M88.8,135.6c-1.7-0.8-2.3-2.7-2.4-3.9c-0.1-3.3,4.1-5.1,4.7-8c0.1,2.2,1.2,3.6,1.8,5.7
				c0.8,2.6-0.7,5.6-3.4,6.1c-0.3-1.3-0.4-2.9,0.2-4.2c0.6-1.4,1.2-3.3,1-4.8c0.2,1.5-0.9,3.7-1.4,4.7
				C89,131.5,88.4,133.5,88.8,135.6z" />
				<path class="st0"
					d="M86.8,142.7c-1.7,0.7-3.6-0.1-4.5-0.8c-2.5-2.1-1.1-6.5-2.9-8.8c1.7,1.4,3.5,1.6,5.5,2.5
				c2.5,1.1,3.7,4.3,2.2,6.6c-1.2-0.6-2.4-1.6-3-3c-0.7-1.4-1.6-3.1-3-4c1.2,0.9,2.2,3.1,2.6,4.1C84,139.9,85,141.7,86.8,142.7z" />
				<path class="st0" d="M93,145c-0.5-1.9,0.6-3.7,1.5-4.6c2.5-2.3,6.9-0.2,9.6-1.7c-1.7,1.5-2.1,3.4-3.3,5.3c-1.5,2.4-5,3.2-7.2,1.4
				c0.8-1.1,2-2.2,3.5-2.7s3.4-1.3,4.5-2.5c-1.1,1.1-3.5,1.8-4.6,2.1C96.3,142.5,94.3,143.2,93,145z" />
				<path class="st0" d="M94.2,118.1c-1.6-0.7-2.4-2.5-2.5-3.6c-0.3-3.1,3.7-5.1,4.1-7.9c0.2,2.1,1.3,3.4,2,5.4c0.9,2.5-0.4,5.4-3,6
				c-0.4-1.2-0.5-2.7,0-4c0.5-1.4,1-3.2,0.7-4.7c0.2,1.4-0.7,3.5-1.1,4.5C94.2,114.2,93.7,116.1,94.2,118.1z" />
				<path class="st0" d="M100.2,122.9c-1.3-0.9-1.7-2.5-1.6-3.6c0.2-2.8,4-4,4.7-6.4c-0.1,1.9,0.6,3.2,1,5c0.5,2.3-1.2,4.7-3.5,4.8
				c-0.2-1.1,0-2.5,0.6-3.6s1.3-2.7,1.3-4c0,1.3-1.1,3-1.6,3.8C100.7,119.5,100,121.1,100.2,122.9z" />
				<path class="st0" d="M111,129.8c-1.6-0.1-2.7-1.4-3.1-2.4c-1.1-2.6,1.7-5.3,1.3-7.8c0.7,1.7,2,2.5,3.2,4c1.5,1.8,1.2,4.7-0.9,5.9
				c-0.7-0.9-1.2-2.2-1.1-3.4c0-1.3-0.1-3-0.7-4.2c0.6,1.2,0.4,3.2,0.4,4.1C109.9,126.6,110,128.3,111,129.8z" />
				<path class="st0" d="M54.8,101.9c-1.8-1.1-4-0.7-5.3,0c-3.3,1.8-2.6,7.1-5.1,9.3c2.2-1.2,4.3-1,6.7-1.6c3.1-0.7,5.1-4.1,3.9-7
				c-1.5,0.4-3,1.3-4,2.7s-2.5,3.1-4.2,3.8c1.6-0.7,3.1-3,3.8-4.1C51,104.4,52.5,102.7,54.8,101.9z" />
				<path class="st0" d="M63.5,104.7c-1.4-0.2-2.6,0.7-3.2,1.4c-1.5,2,0.4,5-0.5,7c1-1.3,2.3-1.8,3.6-2.8c1.6-1.3,1.9-3.9,0.4-5.3
				c-0.8,0.7-1.4,1.6-1.7,2.7c-0.2,1.1-0.7,2.6-1.5,3.4c0.7-0.9,1-2.7,1.1-3.5C61.9,107.2,62.3,105.8,63.5,104.7z" />
				<path class="st0" d="M66.6,91.1c-0.2-2-1.9-3.4-3.2-3.9c-3.3-1.3-6.8,2.4-10,1.9c2.2,0.9,3.3,2.5,5.2,3.9
				c2.4,1.8,6.1,1.3,7.5-1.3c-1.2-0.8-2.8-1.4-4.4-1.3c-1.7,0.1-3.8,0-5.3-0.8c1.5,0.7,4.1,0.4,5.3,0.3
				C62.4,89.8,64.6,89.8,66.6,91.1z" />
				<path class="st0"
					d="M74.4,90.1c1.6,0,2.9-1.3,3.4-2.2c1.4-2.6-1.3-5.7-0.6-8.2c-0.9,1.7-2.3,2.5-3.6,3.8
				c-1.7,1.8-1.6,4.8,0.4,6.2c0.8-0.9,1.4-2.1,1.5-3.4s0.3-3.1,1.1-4.2c-0.7,1.1-0.7,3.3-0.7,4.2C75.8,86.8,75.5,88.6,74.4,90.1z" />
				<path class="st0" d="M79.5,102.3c-0.6-1.5-2.2-2.3-3.3-2.4c-2.9-0.3-4.8,3.3-7.4,3.6c1.9,0.2,3.1,1.3,4.9,2
				c2.3,0.9,5-0.3,5.6-2.6c-1.1-0.4-2.5-0.5-3.7-0.1c-1.3,0.4-3,0.8-4.3,0.5c1.3,0.2,3.3-0.5,4.2-0.9
				C76,102.2,77.7,101.8,79.5,102.3z" />
				<path class="st0"
					d="M68.8,77c-0.2-3-2.7-5.2-4.5-6c-4.9-2.2-10.2,3.1-14.9,2.2c3.3,1.4,4.8,3.9,7.5,6.2
				c3.5,2.8,8.9,2.3,11.2-1.5c-1.7-1.3-4.1-2.3-6.5-2.3c-2.5,0-5.6-0.2-7.9-1.5c2.2,1.1,6,0.9,7.8,0.8C62.7,74.9,66,75.1,68.8,77z" />
				<path class="st0" d="M70.4,70.9c1-0.7,1.2-2,1.1-2.8c-0.3-2.1-3.2-2.9-3.8-4.7c0.2,1.4-0.4,2.5-0.6,3.8c-0.3,1.8,1,3.6,2.8,3.6
				c0.1-0.9-0.1-1.9-0.5-2.7c-0.5-0.9-1.1-2-1.1-3c0.1,1,0.9,2.3,1.3,2.9C69.9,68.3,70.5,69.5,70.4,70.9z" />
				<path class="st0" d="M88.2,95.9c1.2-1.5,0.9-3.5,0.4-4.6c-1.4-3.1-6-2.9-7.8-5.3c0.9,2,0.6,3.8,0.9,6c0.4,2.8,3.2,4.8,5.8,4
				c-0.3-1.3-0.9-2.8-2-3.8c-1.2-1-2.5-2.5-3-4c0.5,1.4,2.4,3,3.3,3.7C86.2,92.3,87.7,93.8,88.2,95.9z" />
				<path class="st0" d="M71.1,55.7c2.4-1,3.6-3.6,3.8-5.3c0.5-4.6-5.2-7.7-5.7-11.9c-0.3,3.1-2,5-3.2,7.8c-1.5,3.6,0.4,8.1,4.2,9
				c0.6-1.8,0.8-4,0.2-6c-0.6-2.1-1.3-4.7-0.8-6.9c-0.4,2.1,0.8,5.3,1.4,6.7C71.2,50,72,52.8,71.1,55.7z" />
				<path class="st0" d="M80,62.2c2.2-1.2,3.1-3.8,3.1-5.4c0-4.5-5.8-6.8-6.7-10.8c0,3-1.4,5-2.3,7.8c-1,3.6,1.2,7.7,4.9,8.1
				c0.4-1.8,0.4-3.9-0.4-5.7c-0.8-1.9-1.7-4.4-1.5-6.6c-0.2,2.1,1.3,5,2,6.3C79.6,56.8,80.6,59.4,80,62.2z" />
				<path class="st0" d="M95,72.2c-0.9-1.6-0.4-3.4,0.3-4.4c1.7-2.7,6.1-1.8,8.1-3.8c-1.1,1.8-1.1,3.5-1.7,5.5c-0.8,2.5-3.7,4.1-6,3
				c0.4-1.2,1.3-2.5,2.5-3.2c1.2-0.8,2.7-1.9,3.4-3.3c-0.7,1.3-2.7,2.4-3.6,3C97.4,69.2,95.8,70.3,95,72.2z" />
				<path class="st0" d="M99.7,74.1c-0.1-1,0.7-1.8,1.2-2.2c1.5-0.9,3.5,0.6,5.1,0.1c-1,0.6-1.4,1.5-2.2,2.4c-1,1.1-2.9,1.2-3.8,0
				c0.5-0.5,1.3-0.9,2.1-1s1.9-0.3,2.6-0.8c-0.7,0.5-2,0.6-2.6,0.6C101.6,73.1,100.5,73.3,99.7,74.1z" />
				<path class="st0" d="M85.4,74.6c-1.7-0.6-2.6-2.3-2.9-3.5c-0.6-3.2,3.3-5.5,3.4-8.5c0.4,2.1,1.6,3.4,2.6,5.3
				c1.2,2.4,0.1,5.6-2.5,6.4c-0.5-1.2-0.8-2.7-0.4-4.1c0.4-1.5,0.7-3.3,0.3-4.8c0.4,1.4-0.3,3.7-0.7,4.7
				C85,70.7,84.6,72.6,85.4,74.6z" />
				<path class="st0" d="M99.4,28.4c-3.8-2.6-4.8-7.5-4.4-10.4c0.9-8.1,11.9-11.1,14.3-18c-0.6,5.4,1.6,9.3,2.4,14.6
				c1.1,6.7-3.8,13.6-10.5,13.7c-0.4-3.3,0.1-7.1,1.9-10.3c1.9-3.3,4.1-7.6,4.1-11.5c-0.2,3.7-3.4,8.7-5,10.9
				C101.3,18.6,99,23.1,99.4,28.4z" />
				<path class="st0" d="M93.9,32.8c0.3-2.2-1.1-4.1-2.3-5c-3.2-2.3-7.8,0.6-11.1-0.8c2.1,1.6,2.8,3.6,4.4,5.6c2,2.6,6.1,3.1,8.3,0.7
				c-1-1.2-2.6-2.3-4.3-2.7c-1.8-0.4-4-1-5.5-2.3c1.4,1.2,4.2,1.6,5.5,1.8C89.8,30.3,92.1,31,93.9,32.8z" />
				<path class="st0" d="M94.6,41.3c-0.4-1.7-2.1-2.8-3.2-3c-3.1-0.8-5.7,2.8-8.5,2.8c2.1,0.5,3.2,1.8,5,2.9c2.3,1.3,5.5,0.5,6.4-2
				c-1.1-0.6-2.6-0.9-4-0.7c-1.4,0.2-3.3,0.5-4.8-0.1c1.4,0.5,3.6-0.1,4.7-0.3C90.8,40.6,92.8,40.4,94.6,41.3z" />
				<path class="st0" d="M93.8,58.2c-0.8-1.1-2.2-1.4-3.1-1.3c-2.4,0.2-3.3,3.4-5.4,4.1c1.6-0.2,2.7,0.5,4.3,0.8c2,0.3,4-1.1,4.1-3
				c-1-0.1-2.1,0-3,0.5c-1,0.5-2.2,1.2-3.4,1.2c1.1,0,2.6-1,3.2-1.4C90.9,58.7,92.3,58,93.8,58.2z" />
				<path class="st0" d="M95,54.2c0.1-1.9-1.2-3.5-2.3-4.1c-2.9-1.8-6.7,1-9.6,0c1.9,1.2,2.6,2.9,4.1,4.6c1.9,2.1,5.4,2.3,7.2,0.1
				c-1-1-2.4-1.8-3.9-2c-1.6-0.2-3.5-0.6-4.8-1.6c1.3,0.9,3.7,1.1,4.8,1.2C91.3,52.3,93.4,52.7,95,54.2z" />
				<path class="st0"
					d="M100.7,55.4c1-0.9,1.1-2.4,0.9-3.2c-0.6-2.3-3.9-2.8-4.8-4.7c0.4,1.5-0.1,2.8-0.2,4.3
				c-0.1,2,1.6,3.8,3.6,3.6c0-1-0.3-2.1-1-2.9c-0.7-0.9-1.5-2.1-1.6-3.2c0.2,1.1,1.3,2.4,1.9,3C99.8,52.6,100.7,53.9,100.7,55.4z" />
				<path class="st0" d="M114.4,41c2.4,0.7,4.9-0.7,6-1.9c3.1-3.3,0.4-9,2.5-12.5c-2.1,2.2-4.5,2.7-7,4.2c-3.2,1.9-4.4,6.4-2,9.3
				c1.5-1,3-2.6,3.6-4.5c0.7-2,1.8-4.4,3.4-5.8c-1.5,1.4-2.4,4.5-2.8,6C117.8,36.8,116.8,39.3,114.4,41z" />
				<path class="st0" d="M107.8,47.4c0.8-0.6,1-1.6,1-2.2c-0.2-1.7-2.6-2.4-3.1-3.9c0.1,1.2-0.3,2-0.5,3.1c-0.2,1.4,0.8,2.9,2.3,2.9
				c0.1-0.7,0-1.5-0.4-2.2s-0.9-1.6-0.9-2.5c0,0.8,0.7,1.9,1.1,2.4C107.4,45.3,107.9,46.2,107.8,47.4z" />
				<path class="st0" d="M107.9,39.7c1-0.6,1.4-1.8,1.4-2.5c0-2.1-2.7-3.1-3.2-5c0,1.4-0.6,2.3-1,3.7c-0.5,1.7,0.6,3.6,2.3,3.8
				c0.2-0.8,0.2-1.8-0.2-2.7s-0.8-2-0.7-3c-0.1,1,0.6,2.3,1,2.9C107.6,37.1,108.1,38.3,107.9,39.7z" />
				<path class="st0" d="M89.8,101.2c1.5,0.9,1.9,2.7,1.9,3.8c-0.2,3-4.2,4.4-5,7c0.1-2-0.8-3.4-1.2-5.4c-0.5-2.5,1.2-5.1,3.7-5.3
				c0.2,1.2,0.1,2.7-0.5,3.9c-0.6,1.3-1.4,2.9-1.3,4.4c0-1.4,1.1-3.3,1.6-4.2C89.3,104.9,90,103.2,89.8,101.2z" />
				<path class="st0"
					d="M93.4,98.3c1.2-0.4,1.9-1.6,2-2.4c0.4-2.2-2.3-3.9-2.4-5.9c-0.3,1.5-1.1,2.4-1.8,3.7
				c-0.8,1.7-0.1,3.9,1.7,4.5c0.4-0.8,0.5-1.9,0.3-2.9S92.7,93,93,91.9c-0.3,1,0.2,2.6,0.5,3.3C93.7,95.5,93.9,96.9,93.4,98.3z" />
				<path class="st0" d="M133.3,43c-0.2-2.7,1.8-5,3.3-5.9c4.1-2.5,9.6,1.6,13.7,0.2c-2.8,1.7-3.8,4.1-6,6.5c-2.8,3-7.8,3.2-10.3,0
				c1.4-1.4,3.4-2.5,5.6-2.8c2.2-0.3,5.1-0.8,6.9-2.3c-1.8,1.3-5.3,1.5-7,1.6C138.6,40.3,135.6,40.9,133.3,43z" />
				<path class="st0" d="M124.4,44.9c-0.9-1.3-0.7-3-0.2-4c1.2-2.6,5.2-2.3,6.8-4.3c-0.8,1.7-0.6,3.3-0.9,5.1c-0.4,2.3-2.8,4-5.1,3.3
				c0.3-1.1,0.9-2.3,1.8-3.2c1-0.9,2.2-2,2.7-3.3c-0.5,1.2-2.1,2.5-2.9,3C126.2,41.9,124.9,43.1,124.4,44.9z" />
				<path class="st0" d="M117.6,50c0.7-0.9,0.5-2.2,0.2-2.8c-0.9-1.8-3.7-1.6-4.9-3c0.6,1.2,0.4,2.3,0.7,3.6c0.3,1.7,2,2.9,3.6,2.3
				c-0.2-0.8-0.6-1.7-1.3-2.2c-0.7-0.6-1.6-1.4-1.9-2.4c0.3,0.9,1.5,1.7,2.1,2.1C116.4,47.8,117.3,48.7,117.6,50z" />
				<path class="st0" d="M133.4,49.1c-0.1,1.2,0.7,2.3,1.3,2.8c1.8,1.3,4.4-0.4,6.2,0.3c-1.2-0.8-1.6-2-2.5-3.1
				c-1.2-1.4-3.4-1.7-4.7-0.3c0.6,0.7,1.5,1.3,2.4,1.4c1,0.2,2.3,0.5,3.1,1.2c-0.8-0.6-2.4-0.9-3.1-1
				C135.7,50.5,134.4,50.1,133.4,49.1z" />
				<path class="st0" d="M148.7,53.8c-0.8-1.7-0.1-3.7,0.7-4.7c2.1-2.7,6.6-1.4,9-3.3c-1.4,1.8-1.5,3.7-2.3,5.7
				c-1.1,2.6-4.3,4-6.7,2.6c0.6-1.3,1.6-2.5,2.9-3.2c1.4-0.7,3.1-1.8,4-3.2c-0.9,1.3-3.1,2.3-4.1,2.8
				C151.5,50.7,149.7,51.8,148.7,53.8z" />
				<path class="st0"
					d="M142.6,53.1c-0.9-0.4-1.3-1.4-1.3-2.1c-0.1-1.8,2.2-2.8,2.5-4.4c0.1,1.2,0.7,2,1,3.1
				c0.5,1.4-0.4,3.1-1.8,3.3c-0.2-0.7-0.2-1.5,0.1-2.3s0.6-1.8,0.5-2.6c0.1,0.8-0.4,2-0.7,2.5C142.6,51,142.3,52,142.6,53.1z" />
				<path class="st0" d="M129.1,52.6c0.7-0.7,1.8-0.6,2.4-0.4c1.7,0.6,1.8,3.1,3.1,3.9c-1.1-0.4-2.1-0.1-3.2-0.2
				c-1.5-0.1-2.7-1.5-2.4-2.9c0.7,0.1,1.5,0.4,2.1,0.9c0.6,0.6,1.4,1.2,2.2,1.4c-0.8-0.2-1.7-1.2-2.1-1.6
				C131,53.4,130.2,52.7,129.1,52.6z" />
				<path class="st0" d="M136.1,58c-0.7-0.3-1.1-1-1.2-1.5c-0.2-1.4,1.4-2.4,1.5-3.6c0.2,0.9,0.7,1.5,1.1,2.3c0.5,1.1,0,2.4-1.1,2.8
				c-0.2-0.5-0.3-1.2-0.2-1.8c0.2-0.6,0.3-1.4,0.1-2.1c0.1,0.6-0.2,1.6-0.3,2C136,56.3,135.8,57.2,136.1,58z" />
				<path class="st0" d="M122.3,58.5c1.2-0.6,2.5-0.1,3.2,0.3c1.9,1.3,1.1,4.4,2.5,6c-1.2-0.9-2.5-0.9-3.9-1.4
				c-1.8-0.7-2.8-2.8-1.9-4.5c0.9,0.4,1.7,1,2.3,1.9c0.5,0.9,1.3,2,2.3,2.6c-0.9-0.6-1.7-2-2-2.7C124.4,60.3,123.6,59.1,122.3,58.5z
				" />
				<path class="st0" d="M118.6,53.6c0.7-1.1,2-1.5,2.9-1.4c2.3,0.1,3.3,3.1,5.3,3.7c-1.5-0.1-2.6,0.6-4.1,1c-1.9,0.4-3.9-0.8-4-2.7
				c0.9-0.2,2-0.1,2.9,0.4c1,0.5,2.2,1,3.3,0.9c-1.1,0-2.5-0.8-3.2-1.2C121.4,53.9,120.1,53.4,118.6,53.6z" />
				<path class="st0"
					d="M120.7,42.6c-0.5-0.4-0.7-1-0.7-1.5c0.1-1.1,1.6-1.6,1.9-2.6c-0.1,0.8,0.3,1.3,0.4,2.1
				c0.2,0.9-0.5,1.9-1.4,2c-0.1-0.5,0-1,0.2-1.5c0.3-0.5,0.5-1.1,0.5-1.6c0,0.5-0.4,1.2-0.7,1.6C120.9,41.2,120.6,41.8,120.7,42.6z" />
				<path class="st0" d="M121.4,66.7c0.7-1.8-0.2-3.7-1-4.7c-2.3-2.6-6.8-0.9-9.3-2.7c1.5,1.7,1.7,3.6,2.7,5.6
				c1.2,2.6,4.6,3.7,6.9,2.1c-0.7-1.2-1.8-2.4-3.2-3c-1.4-0.7-3.2-1.6-4.2-3c1,1.2,3.3,2.1,4.3,2.5
				C118.4,63.8,120.3,64.8,121.4,66.7z" />
				<path class="st0" d="M128.1,71.6c-1.1-0.7-1.4-2.1-1.3-3c0.2-2.4,3.4-3.3,4-5.3c-0.1,1.6,0.5,2.7,0.8,4.2c0.4,1.9-1,4-3,4
				c-0.1-1,0-2.1,0.5-3c0.5-1,1.1-2.2,1.1-3.4c0,1.1-0.9,2.5-1.4,3.2C128.6,68.7,127.9,70,128.1,71.6z" />
				<path class="st0" d="M124.3,73.4c-0.2-1.5-1.5-2.6-2.4-3c-2.5-1-5.2,1.7-7.6,1.4c1.7,0.7,2.5,2,3.9,3.1c1.8,1.4,4.6,1,5.8-0.9
				c-0.9-0.6-2.1-1.1-3.4-1.1c-1.3,0-2.9,0-4.1-0.6c1.1,0.6,3.1,0.4,4,0.3C121.1,72.4,122.8,72.4,124.3,73.4z" />
				<path class="st0" d="M119,79.9c0.4-1.1,0-2.3-0.5-2.9c-1.4-1.6-4.2-0.7-5.7-1.9c0.9,1.1,1,2.3,1.6,3.5c0.7,1.6,2.8,2.4,4.3,1.5
				c-0.4-0.8-1.1-1.5-1.9-2c-0.9-0.4-2-1.1-2.6-1.9c0.6,0.8,2,1.4,2.7,1.7C117.2,78,118.3,78.7,119,79.9z" />
				<path class="st0" d="M144.3,69.3c0.7-1.4,2.3-2,3.3-2c2.7-0.1,4.3,3.4,6.7,3.9c-1.8,0.1-3,1-4.8,1.5c-2.2,0.7-4.7-0.6-5.1-2.8
				c1.1-0.3,2.4-0.3,3.5,0.1c1.2,0.5,2.7,1,4,0.8c-1.3,0.1-3.1-0.7-3.9-1.1C147.7,69.5,146,68.9,144.3,69.3z" />
				<path class="st0" d="M142.8,64.4c-0.5-1-0.2-2.1,0.2-2.8c1.1-1.7,3.8-1.1,5.1-2.4c-0.7,1.1-0.7,2.2-1,3.5
				c-0.5,1.6-2.3,2.6-3.8,1.8c0.3-0.8,0.8-1.5,1.5-2c0.8-0.5,1.7-1.2,2.1-2.1c-0.4,0.8-1.7,1.5-2.3,1.9
				C144.3,62.5,143.3,63.2,142.8,64.4z" />
				<path class="st0" d="M131.4,73.4c1.3-0.6,2.7,0,3.4,0.5c1.9,1.5,0.9,4.8,2.3,6.5c-1.3-1-2.6-1.1-4.1-1.7
				c-1.9-0.8-2.9-3.1-1.8-4.8c0.9,0.4,1.8,1.2,2.3,2.1c0.5,1,1.3,2.2,2.3,2.9c-0.9-0.6-1.7-2.2-2-3
				C133.6,75.4,132.8,74.1,131.4,73.4z" />
				<path class="st0" d="M153.6,77.8c-0.5-1,0-2.1,0.4-2.7c1.2-1.6,3.8-0.8,5.2-1.9c-0.8,1-0.9,2.1-1.3,3.3c-0.6,1.5-2.5,2.3-3.9,1.5
				c0.3-0.7,0.9-1.4,1.7-1.9c0.8-0.4,1.8-1,2.3-1.9c-0.5,0.7-1.8,1.4-2.4,1.6C155.2,76.1,154.2,76.7,153.6,77.8z" />
				<path class="st0" d="M147.1,76.4c0.3-1.5-0.5-2.8-1.3-3.5c-2-1.7-5.3,0-7.4-1.1c1.3,1.1,1.7,2.6,2.7,4c1.2,1.8,3.9,2.4,5.5,0.9
				c-0.6-0.9-1.6-1.7-2.8-2s-2.7-0.9-3.5-1.8c0.9,0.8,2.7,1.3,3.6,1.5C144.5,74.5,146,75,147.1,76.4z" />
				<path class="st0" d="M168.1,78.7c1.3-2.4,4.1-3.3,5.8-3.3c4.8,0,7.2,6.2,11.4,7.2c-3.2,0-5.3,1.5-8.4,2.4
				c-3.8,1.1-8.2-1.3-8.7-5.3c1.9-0.4,4.2-0.4,6.1,0.5c2,0.9,4.7,1.9,7,1.6c-2.2,0.2-5.3-1.4-6.7-2.2
				C173.9,79.1,171.2,78.1,168.1,78.7z" />
				<path class="st0" d="M163.9,85.4c1.5-1.7,4-1.8,5.4-1.4c3.9,1,4.6,6.6,7.9,8.3c-2.6-0.7-4.7,0.1-7.3,0.2c-3.4,0.1-6.4-2.8-6-6.1
				c1.6,0,3.5,0.6,4.9,1.7c1.5,1.2,3.4,2.5,5.4,2.8c-1.8-0.3-4-2.3-5-3.2C168.6,87,166.5,85.6,163.9,85.4z" />
				<path class="st0" d="M135.8,84c0-1.6,1.3-2.9,2.3-3.4c2.6-1.3,5.7,1.4,8.2,0.8c-1.7,0.9-2.5,2.3-3.9,3.6
				c-1.8,1.6-4.8,1.5-6.2-0.5c0.9-0.8,2.2-1.4,3.5-1.4c1.4-0.1,3.1-0.3,4.3-1c-1.2,0.7-3.3,0.7-4.3,0.6
				C139.1,82.7,137.3,82.9,135.8,84z" />
				<path class="st0"
					d="M131.6,92.1c1.2-0.8,2.7-0.5,3.6,0c2.2,1.2,1.8,4.8,3.5,6.3c-1.5-0.8-2.9-0.7-4.5-1.1
				c-2.1-0.5-3.5-2.8-2.7-4.7c1,0.3,2,0.9,2.7,1.8s1.7,2.1,2.8,2.6c-1.1-0.5-2.1-2-2.6-2.8C134.2,93.9,133.2,92.7,131.6,92.1z" />
				<path class="st0" d="M127.1,84.7c-0.1-1,0.5-1.9,1.1-2.3c1.5-1.1,3.6,0.3,5.1-0.3c-1,0.7-1.3,1.6-2.1,2.6c-1,1.2-2.8,1.4-3.8,0.3
				c0.5-0.6,1.2-1,2-1.2s1.9-0.5,2.5-1c-0.6,0.5-2,0.7-2.6,0.8C129,83.6,127.9,83.9,127.1,84.7z" />
				<path class="st0" d="M136,88.9c0.7-0.8,1.8-0.9,2.4-0.7c1.8,0.4,2.2,2.9,3.6,3.6c-1.2-0.3-2.1,0.1-3.3,0.2
				c-1.5,0.1-2.9-1.2-2.8-2.7c0.7,0,1.6,0.2,2.2,0.7c0.7,0.5,1.6,1.1,2.4,1.2c-0.8-0.1-1.8-1-2.3-1.4C138.1,89.6,137.2,89,136,88.9z
				" />
				<path class="st0" d="M122.6,99.7c2,0.8,2.9,3,3,4.4c0.4,3.8-4.4,6.2-4.8,9.6c-0.2-2.5-1.6-4.1-2.5-6.4c-1.1-3,0.4-6.6,3.5-7.3
				c0.5,1.5,0.6,3.3,0.1,4.9c-0.6,1.7-1.1,3.9-0.8,5.7c-0.3-1.7,0.7-4.3,1.2-5.5C122.7,104.3,123.3,102.1,122.6,99.7z" />
				<path class="st0" d="M159.7,101.1c-1.4-0.8-1.9-2.6-1.9-3.7c0.1-3,4-4.4,4.6-6.9c-0.1,2,0.8,3.3,1.3,5.2c0.6,2.4-1,5-3.4,5.3
				c-0.2-1.2-0.2-2.6,0.4-3.8c0.6-1.2,1.2-2.9,1.1-4.3c0.1,1.4-1,3.2-1.5,4.1C160.1,97.5,159.4,99.2,159.7,101.1z" />
				<path class="st0" d="M173.4,99.6c0.2-2.9,2.5-5,4.3-5.8c4.7-2.2,9.9,2.8,14.5,1.9c-3.1,1.4-4.6,3.9-7.2,6.1
				c-3.3,2.8-8.6,2.4-10.9-1.3c1.7-1.3,3.9-2.3,6.2-2.3c2.4,0,5.5-0.3,7.6-1.5c-2.1,1.1-5.8,1-7.6,0.9
				C179.3,97.4,176.1,97.6,173.4,99.6z" />
				<path class="st0" d="M166,113.9c1.1-1.4,3-1.7,4.1-1.5c3.1,0.5,4,4.8,6.6,5.9c-2.1-0.3-3.6,0.4-5.7,0.6c-2.6,0.3-5.1-1.8-5-4.4
				c1.3-0.1,2.7,0.2,3.9,1c1.2,0.8,2.8,1.7,4.3,1.8c-1.4-0.1-3.3-1.5-4.1-2.1C169.7,114.8,168.1,113.9,166,113.9z" />
				<path class="st0" d="M147.1,106.8c-1.1-0.8-1.3-2.2-1.2-3.1c0.3-2.4,3.6-3.2,4.3-5.2c-0.2,1.6,0.4,2.7,0.6,4.3
				c0.3,2-1.2,4-3.2,3.9c-0.1-1,0.1-2.1,0.7-3c0.6-0.9,1.2-2.2,1.3-3.4c-0.1,1.1-1.1,2.5-1.5,3.2C147.7,103.9,147,105.2,147.1,106.8
				z" />
				<path class="st0" d="M157,101.4c1.2,0.6,1.6,2,1.6,2.9c0,2.4-3.1,3.6-3.6,5.7c0-1.6-0.7-2.7-1.1-4.2c-0.5-1.9,0.7-4.1,2.7-4.3
				c0.2,0.9,0.2,2.1-0.3,3.1c-0.5,1-1,2.3-0.9,3.5c-0.1-1.1,0.7-2.6,1.1-3.3C156.7,104.3,157.2,102.9,157,101.4z" />
				<path class="st0" d="M142.2,118.6c1.4-0.8,1.9-2.4,1.9-3.4c0-2.8-3.6-4.2-4.2-6.6c0,1.8-0.8,3.1-1.3,4.9c-0.6,2.2,0.8,4.7,3.1,5
				c0.2-1.1,0.2-2.4-0.3-3.5c-0.5-1.2-1.1-2.7-1-4c-0.1,1.3,0.9,3.1,1.3,3.9C141.9,115.3,142.5,116.9,142.2,118.6z" />
				<path class="st0" d="M143.7,107.5c0.4-0.7,0.3-1.5,0-2c-0.7-1.2-2.7-1-3.5-2c0.5,0.8,0.4,1.6,0.6,2.5c0.3,1.2,1.5,1.9,2.6,1.5
				c-0.2-0.6-0.5-1.1-1-1.5s-1.2-1-1.4-1.6c0.3,0.6,1.1,1.2,1.5,1.4C142.7,106,143.4,106.6,143.7,107.5z" />
				<path class="st0" d="M149.8,118.9c1.5-1.6,3.8-1.7,5.2-1.3c3.7,1,4.3,6.3,7.4,8c-2.5-0.7-4.5,0.1-7,0.1c-3.2,0-6.1-2.7-5.6-5.9
				c1.6,0.1,3.3,0.6,4.7,1.6c1.4,1.1,3.3,2.4,5.1,2.7c-1.7-0.3-3.8-2.2-4.7-3.1C154.2,120.5,152.2,119.1,149.8,118.9z" />
				<path class="st0" d="M165.9,109.2c-0.4-1.2,0.3-2.4,0.8-3c1.6-1.6,4.4-0.3,6.1-1.4c-1,1-1.3,2.2-2,3.5c-0.9,1.6-3.1,2.2-4.6,1.1
				c0.5-0.8,1.2-1.5,2.2-1.9s2.2-0.9,2.8-1.8c-0.7,0.8-2.2,1.3-2.9,1.5C168,107.5,166.7,108.1,165.9,109.2z" />
				<path class="st0" d="M182.9,117.3c-2-0.4-3.3-2.3-3.7-3.6c-1-3.6,3.1-6.7,2.9-10c0.7,2.4,2.3,3.6,3.5,5.7
				c1.6,2.6,0.7,6.3-2.1,7.6c-0.7-1.3-1.2-3-1-4.6c0.2-1.7,0.4-3.9-0.3-5.5c0.6,1.6,0.1,4.2-0.2,5.4
				C182,112.9,181.8,115.2,182.9,117.3z" />
				<path class="st0" d="M189.9,124.8c1.9-2,4.8-2.2,6.6-1.7c4.7,1.2,5.6,8,9.5,10c-3.2-0.8-5.7,0.1-8.9,0.2
				c-4.1,0.1-7.7-3.4-7.2-7.4c2,0,4.2,0.7,5.9,2c1.8,1.4,4.2,3.1,6.5,3.4c-2.2-0.4-4.9-2.8-6.1-3.9
				C195.6,126.8,193.1,125,189.9,124.8z" />
				<path class="st0" d="M185.3,148c3.8-4.1,9.8-4.4,13.4-3.5c9.6,2.5,11.3,16.2,19.2,20.3c-6.4-1.6-11.5,0.3-18,0.4
				c-8.3,0.2-15.7-6.9-14.6-15.1c4,0.1,8.6,1.4,12,4.1c3.6,2.8,8.4,6.2,13.2,6.9c-4.5-0.8-9.8-5.6-12.3-7.9
				C196.7,152,191.7,148.5,185.3,148z" />
				<path class="st0" d="M141.9,142.7c0.6-2.7-0.9-5.2-2.2-6.4c-3.7-3.2-9.7-0.1-13.6-2.2c2.4,2.2,3.1,4.8,4.8,7.5
				c2.2,3.4,7.2,4.5,10.2,1.8c-1.2-1.6-2.9-3.1-5-3.8c-2.2-0.7-4.9-1.7-6.5-3.5c1.6,1.6,5,2.5,6.6,2.8
				C137.1,139.2,140,140.2,141.9,142.7z" />
				<path class="st0" d="M148.2,140.7c1.3-1.4,1.3-3.5,0.9-4.7c-1.1-3.3-5.9-3.6-7.5-6.2c0.7,2.2,0.2,4,0.3,6.3
				c0.1,2.9,2.8,5.3,5.6,4.8c-0.1-1.4-0.7-3-1.7-4.1c-1.1-1.2-2.4-2.8-2.7-4.4c0.4,1.5,2.2,3.3,3,4.1
				C146.6,136.8,147.9,138.5,148.2,140.7z" />
				<path class="st0" d="M170.1,125.8c1-1.1,1-2.7,0.7-3.7c-0.8-2.6-4.6-2.8-5.9-4.9c0.6,1.7,0.1,3.1,0.2,4.9
				c0.1,2.2,2.2,4.1,4.4,3.7c-0.1-1.1-0.5-2.3-1.3-3.2s-1.8-2.2-2.1-3.4c0.3,1.2,1.7,2.6,2.4,3.2C168.8,122.7,169.9,124,170.1,125.8
				z" />
				<path class="st0" d="M168.4,135.4c0.4-1.9-0.7-3.7-1.6-4.6c-2.6-2.3-6.9,0-9.7-1.5c1.7,1.5,2.2,3.4,3.5,5.3
				c1.6,2.4,5.1,3.1,7.2,1.2c-0.8-1.1-2.1-2.2-3.6-2.6c-1.5-0.5-3.5-1.2-4.6-2.4c1.1,1.1,3.6,1.7,4.7,2
				C165,132.9,167,133.7,168.4,135.4z" />
				<path class="st0" d="M153.3,148.7c-1.5-1.2-1.7-3.4-1.5-4.6c0.7-3.4,5.5-4.2,6.8-7.1c-0.5,2.3,0.3,4,0.5,6.3
				c0.2,2.9-2.1,5.6-5,5.4c0-1.4,0.3-3,1.2-4.3c0.9-1.3,2-3.1,2.2-4.7c-0.2,1.6-1.8,3.5-2.5,4.4
				C154.5,144.6,153.3,146.4,153.3,148.7z" />
				<path class="st0" d="M145.1,163.5c1.3-2.2,0.7-4.9-0.1-6.3c-2.3-3.9-8.5-2.9-11.3-5.9c1.5,2.6,1.3,5.1,2.1,7.9c1,3.6,5,6,8.4,4.5
				c-0.5-1.8-1.7-3.6-3.3-4.8c-1.7-1.2-3.8-2.9-4.7-4.9c0.9,1.9,3.7,3.6,5,4.4C142,159,144.1,160.7,145.1,163.5z" />
				<path class="st0"
					d="M183.2,138.8c-0.8-1.3-0.4-2.9,0.1-3.8c1.4-2.3,5.1-1.7,6.8-3.5c-0.9,1.6-0.8,3.1-1.3,4.8
				c-0.6,2.2-3,3.6-5.1,2.7c0.3-1.1,1-2.2,2-2.9s2.3-1.8,2.8-2.9c-0.6,1.1-2.2,2.2-3,2.6C185.1,136,183.8,137.1,183.2,138.8z" />
				<path class="st0" d="M178.6,187.5c3.8-2.1,8.3-0.8,10.7,0.7c6.5,4.2,4.3,14.7,9.2,19.7c-4.3-2.8-8.5-2.6-13.3-4.1
				c-6.1-1.9-9.8-9-7.1-14.7c2.9,1.1,6,3.1,7.8,6c1.9,3,4.7,6.6,8,8.3c-3.1-1.7-5.9-6.6-7.1-8.8
				C186.1,193.2,183.2,189.4,178.6,187.5z" />
				<path class="st0" d="M164.4,191.1c2.5,0.8,3.9,3.3,4.2,5c0.9,4.6-4.7,8.2-4.8,12.4c-0.6-3.1-2.5-4.9-3.8-7.7
				c-1.8-3.5-0.2-8.2,3.5-9.4c0.8,1.8,1.2,4,0.7,6c-0.5,2.1-1,4.9-0.3,7.1c-0.6-2.1,0.4-5.4,0.9-6.9
				C165,196.8,165.5,193.9,164.4,191.1z" />
				<path class="st0" d="M172.6,192.7c1.8,0.3,2.9,1.9,3.3,3.1c1,3.1-2.5,5.9-2.2,8.8c-0.7-2-2.1-3.1-3.2-4.9
				c-1.5-2.2-0.8-5.5,1.6-6.6c0.7,1.1,1.1,2.6,1,4c-0.2,1.5-0.2,3.4,0.4,4.8c-0.6-1.4-0.2-3.7,0-4.8
				C173.5,196.5,173.6,194.6,172.6,192.7z" />
				<path class="st0" d="M168.2,171.8c-0.3-1.8,0.9-3.4,1.8-4.1c2.6-1.9,6.4,0.5,9.1-0.7c-1.7,1.3-2.3,3-3.6,4.6
				c-1.7,2.1-5,2.5-6.8,0.6c0.8-1,2.1-1.9,3.5-2.2c1.5-0.3,3.3-0.9,4.4-1.9c-1.1,1-3.4,1.3-4.5,1.5
				C171.6,169.7,169.7,170.2,168.2,171.8z" />
				<path class="st0" d="M168.4,178.2c1.5-2.5,4.6-3.3,6.5-3.3c5.2,0.2,7.6,7.1,12.1,8.4c-3.5-0.2-5.9,1.4-9.2,2.1
				c-4.2,1-8.8-1.9-9.2-6.2c2.1-0.4,4.6-0.2,6.6,0.8c2.2,1.1,5,2.3,7.5,2.1c-2.4,0.1-5.7-1.8-7.2-2.7
				C174.7,179,171.8,177.7,168.4,178.2z" />
				<path class="st0" d="M151.9,189.1c3.7,1.1,5.7,4.8,6.2,7.3c1.3,6.7-6.7,11.8-6.9,18c-0.9-4.5-3.6-7.1-5.6-11.1
				c-2.6-5.1-0.4-11.8,5-13.6c1.1,2.5,1.7,5.7,1,8.7c-0.7,3.1-1.4,7.1-0.4,10.2c-0.8-3,0.6-7.8,1.2-10
				C152.8,197.4,153.5,193.2,151.9,189.1z" />
				<path class="st0" d="M146.8,189.1c0.1,1.8-1.2,3.3-2.2,3.9c-2.7,1.7-6.4-1-9.1,0c1.8-1.1,2.5-2.8,4-4.3c1.8-2,5.2-2.1,6.8-0.1
				c-0.9,0.9-2.2,1.7-3.7,1.9s-3.4,0.6-4.6,1.5c1.2-0.9,3.5-1.1,4.6-1.1C143.3,190.9,145.3,190.5,146.8,189.1z" />
				<path class="st0" d="M50.4,137.3L50.4,137.3z" />
				<circle class="st0" cx="45.4" cy="127.5" r="3.2" />
				<ellipse class="st0" cx="23.6" cy="120" rx="2.7" ry="3.1" />
				<path id="leaf-animal" class="st1 leaf leaf-animal"
					d="M17.3,25.4c6.5,7.2,7.3,14.9,11.4,23.3c2.4,4.9,6.8,8.6,11.8,10.6c6,2.3,14,2.1,19.8-1.4
				c0,0,0.7-0.4,0.7-0.5l1.1-1.2c0.3-0.7,0.5-1,0.7-1.7c1-3.7,0.5-7.4-0.7-10.6c-1-2.7-2.5-5-3.9-6.6C48.3,26.5,28.2,33,17.3,25.4z" />
				<path id="leaf-human" class="st1 leaf leaf-human" d="M193.1,22c-3.1,9.8-0.5,17.9-0.8,28c-0.2,5.9-2.7,11.4-6.6,15.4c-4.6,4.8-12.2,7.8-19,6.6
				c0,0-0.8-0.2-0.9-0.2l-1.5-0.8c-0.6-0.6-0.9-0.8-1.4-1.4c-2.5-3.3-3.6-7.3-3.8-11c-0.2-3.1,0.2-6,0.9-8.2
				C164.5,35.6,186,34,193.1,22z" />
				<path id="leaf-memory" class="st1 leaf leaf-memory" d="M233.6,83.8c-5.6,7.6-5.8,15.4-9.1,24.1c-1.9,5-5.8,9-10.3,11.4c-5.4,2.8-12.9,3.1-18.5,0l-0.7-0.4l-1.1-1.1
				c-0.3-0.7-0.6-1-0.8-1.7c-1.1-3.6-0.9-7.4,0-10.7c0.8-2.7,2-5.1,3.2-6.9C204.8,87.1,223.9,92.1,233.6,83.8z" />
				<path id="leaf-plant" class="st1 leaf leaf-plant" d="M0,110.7c8.1,5.6,10.4,13.1,16.3,20.5c3.4,4.3,8.7,7,14.2,7.9c6.6,1,14.9-0.9,20.1-5.6c0,0,0.6-0.6,0.7-0.6
				l0.9-1.4c0.2-0.8,0.3-1.1,0.4-1.8c0.3-3.8-1-7.4-2.8-10.3c-1.5-2.4-3.5-4.4-5.4-5.7C32.2,105.1,12.7,115.8,0,110.7z" />
			</g>
			<g>
				<path id="leaf-animal1" class="st2 leaf leaf-animal" d="M45.4,45.7c-1.6,1.3-0.8,3.1-1.1,5.6c-0.5,3.7,1.2,5.1,2.8,4.4s1.5-3,3-4.1l0,0l0,0c1.4-1.1,3.6-0.5,4.7-1.9
				c1.1-1.4,0.1-3.4-3.6-3.8C48.5,45.6,47,44.4,45.4,45.7z" />
				<ellipse id="leaf-animal2" transform="matrix(0.2701 -0.9628 0.9628 0.2701 -18.5775 74.733)"
					class="st2 leaf leaf-animal" cx="40" cy="49.6" rx="2.2" ry="3.5" />
				<ellipse id="leaf-animal3" transform="matrix(0.9992 -3.960014e-02 3.960014e-02 0.9992 -1.5958 2.0322)"
					class="st2 leaf leaf-animal" cx="50.5" cy="41.3" rx="2.2" ry="3.5" />
				<ellipse id="leaf-animal4" transform="matrix(0.664 -0.7478 0.7478 0.664 -19.0806 44.5458)"
					class="st2 leaf leaf-animal" cx="40" cy="43.5" rx="2.4" ry="3.6" />
				<ellipse id="leaf-animal5" transform="matrix(0.8813 -0.4726 0.4726 0.8813 -13.6169 25.7914)"
					class="st2 leaf leaf-animal" cx="44.5" cy="40" rx="2.4" ry="3.6" />
			</g>
			<g>
				<path id="leaf-plant1" class="st2 leaf leaf-plant" d="M38.7,117.2c-1.8,0.3-3.7,1-4.9,2.4c-0.8,0.9-1.2,2-1.5,3.1c-0.1-1-0.3-1.9-0.8-2.8
				c-0.9-1.8-2.8-2.9-4.8-3.3c-2-0.4-4-0.2-5.9,0.2c0.4,0.1,0.8,0.4,1.1,0.7l0,0c0.4,0.4,0.7,0.8,0.9,1.2c0.4,0.9,0.5,1.9,0.7,2.9
				c0.1,0.5,0.2,0.9,0.4,1.4l0,0c0.2,0.5,0.4,0.9,0.8,1.3c0.9,1,2.4,1.4,3.8,1.3c1.1-0.1,2.2-0.4,3.3-0.9c0,0.5,0.2,1,0.3,1.6
				c0.3,1.3,0.5,2.7,0.4,4.1v0.1c0,1.2-0.2,2.3-0.6,3.5l2.2,0.3c0.1-0.3,0.1-0.6,0.1-0.9c0-1.7,0.1-3.5-0.2-5.2
				c-0.2-1.3-0.5-2.7-1.1-3.8c1-0.4,2.3-0.3,3.4-0.1c1.5,0.2,3.1,0.4,4.4-0.4c0.8-0.5,1.3-1.3,1.6-2.1c0.4-1,0.5-2,0.7-3
				s0.6-2,1.3-2.7C42.4,116.8,40.5,116.9,38.7,117.2z M31.8,124.4c-1,0-2-0.5-2.8-1.1c-1.1,0.2-2.3,0-3.3-0.6c0.9,0,1.8,0.1,2.8,0.1
				c-0.2-0.2-0.5-0.5-0.7-0.8c-0.1-0.2-0.3-0.3-0.4-0.5c-0.1,0-0.3,0-0.4,0c-0.3,0-0.7-0.1-0.9-0.1l0,0c-0.4-0.1-0.9-0.3-1.2-0.6
				c0.5,0.1,0.9,0.2,1.4,0.2h1c-0.3-0.4-0.5-0.8-0.8-1.2c0,0-0.1-0.1-0.1-0.2l0,0l0,0c-0.4-0.5-0.8-1-1.3-1.4
				c0.4,0.2,0.8,0.4,1.1,0.7c0.1,0,0.1,0.1,0.2,0.1c0.3,0.3,0.7,0.8,1,1.2c-0.1-0.7-0.1-1.4-0.2-2.1c0.3,0.2,0.7,2.3,0.8,2.8
				c0,0,0,0,0,0.1c0.5,0.6,1,1.1,1.6,1.6c-0.1-0.3-0.2-0.6-0.2-1c-0.1-0.7,0-1.4,0.1-2.2c0.2,0.9,0.3,1.8,0.5,2.6
				c0.1,0.3,0.1,0.6,0.2,0.9C30.4,123.5,31.1,123.9,31.8,124.4c0.1-0.1,0.1,0,0.2,0H31.8z M40.7,121.2c-0.4,0.5-1,0.8-1.7,0.9
				c-0.6,0.1-1.2,0-1.8-0.1c-0.3,0.1-0.5,0.2-0.8,0.3c-0.4,0.2-0.7,0.3-1.1,0.5c1.4,0.2,2.7,0.2,4.1,0.1c-1.3,0.4-2.7,0.8-4,0.4
				c-0.2-0.1-0.4-0.2-0.5-0.3c-0.7,0.4-1.4,0.8-2.1,1.2c-0.1,0.1-0.2,0.2-0.3,0.2c0.1-0.1,0.2-0.2,0.2-0.3c0.3-0.3,0.6-0.6,0.9-0.8
				c0.7-1,1.5-2.1,2.2-3.1c-0.4,0.9-0.8,1.9-1.5,2.6c0.7-0.4,1.4-0.8,2.2-1.1c0.7-0.8,1.2-1.7,1.6-2.7c0,1-0.5,1.9-0.9,2.3
				c1.4-0.7,2.9-1.4,3.8-2.6c-0.2,1-0.9,1.7-1.8,2.3c-0.3,0.2-0.6,0.4-0.9,0.5C39.1,121.4,39.9,121.3,40.7,121.2z" />
			</g>
			<line class="st3" x1="32.7" y1="130.6" x2="31.1" y2="130.4" />
			<path class="st4" d="M173.8,264.6c0.1,0.8,0,1.6-0.2,2.2l0,0c0,0,0,0.1-0.1,0.1h0.1h0.1c0-0.1,0.1-0.1,0.1-0.2
			c0.3-0.7,0.4-1.5,0.4-2.3C174,264.5,173.9,264.6,173.8,264.6z M193.1,118.4c-1.6,1-9,6.2-10.6,7.5c1-3.1,1.2-4.8,1-7.9
			c-0.1-1.1-0.4-1.8-0.6-0.8l0,0c-0.1,0.2-0.1,0.6-0.1,1.1c-0.1,3.5-1.1,7.5-3.2,9.9c-2.7,2.6-6.2,6.5-8.8,9.6c1-4.6,0-10.1,0-10.5
			c-0.3-1.8-0.9-1.8-0.8,0.4c0,0.5,0.1,1,0.2,1.4c0.5,4-1.2,10.2-3.3,13.5c-0.8,1-1.7,2.1-2.5,3.1c-3.9,4.9-7.7,9.6-11.3,13.3
			c-1.5,1.5-3,2.8-4.5,4.1c2.7-6.1,3.6-15.6,0.2-21.4c-0.7-1.2-1.2-1-0.5,0.2c1.2,2,1.5,5.3,1.2,8.9c-1.3-2.7-3.4-6.2-6-7.8
			c-1.2-0.7-1.4,0-0.2,0.7c2.6,1.6,5.3,7.8,5.7,10.9c-0.9,4.7-3.1,9.3-5.1,11.4l0,0c-6.9,4.6-11.2,6.3-15.3,7.9
			c-0.1-5.1-0.6-10.3-1.5-15.8c-0.8-5-2-10.4-3.5-16.1c0.1-0.2,0.1-0.5,0.1-0.7c-0.3-2.7,1.2-8.9,3.6-13c0.7-1.2,1.3-2.4,2-3.6
			c6.9-1.9,13.2-3.1,19.7-7.6c1.3-0.9,2.6-1.9,3.9-3c0.1,0,0.1,0,0.2-0.1c0.7-0.4,2.6-0.8,4-0.7c2.7,0.2,5.4,0.2,8.1,0.4
			c0.7,0.1,0.7-0.3,0-0.4l-2.8-0.3c0.7-0.9,1.3-2.6,2.8-3.8c0.5-0.5,0.4-0.7-0.2-0.2c-2.2,1.6-2.5,3.4-3.4,3.9l-4.5-0.2
			c-0.8,0-1.6-0.1-2.4-0.1c0.5-0.4,0.9-0.8,1.4-1.2c1.8-1.5,4.7-4.2,7.8-6.4c3.5-2.5,7.1-4.4,8.8-5c0.7-0.2,0.5-0.8-0.2-0.5
			c-0.9,0.3-5.1,2.3-6.1,2.8c0.8-1.4,1-2.3,1.2-3.9c0.1-0.7-0.1-1.1-0.4,0.1c-0.4,1.8-1.3,3.7-2.6,4.7c-1.6,1.1-3.8,2.7-5.4,4
			c1-2.2,1-5.1,1-5.3c0-1-0.3-1-0.5,0.1c0,0.2,0,0.5,0,0.7c-0.1,2.1-1.6,5-2.9,6.5c-0.5,0.4-1,0.9-1.5,1.3c-2.5,2.1-4.8,4.1-7,5.6
			c-0.9,0.6-1.8,1.2-2.7,1.6c1.9-2.8,3.3-7.5,2.1-10.8c-0.2-0.7-0.5-0.6-0.3,0.1c0.4,1.1,0.2,2.8-0.2,4.6c-0.4-1.5-1.1-3.5-2.3-4.5
			c-0.5-0.5-0.7-0.2-0.2,0.3c1.2,1,1.9,4.5,1.8,6.1c-0.9,2.3-2.4,4.4-3.7,5.3l0,0c-4,1.7-8.3,2.5-12.5,3.6c1.7-3.2,4-6.3,5.5-9.6
			c2.2-5.1,3.5-10.2,5.6-14.2l0,0c1.1-1.1,3.8-2.1,6.8-2.5c2.1,0.3,6.6,2,8,3.5c0.6,0.7,1,0.6,0.4-0.1c-1.4-1.5-4-2.8-6-3.6
			c2.3-0.1,4.5,0.2,6,0.9c0.9,0.4,1,0.1,0.1-0.3c-4.3-2.1-10.4-1.8-14-0.5c0.6-0.8,1.3-1.6,2-2.4c1.9-1.9,4.4-3.9,7.1-6
			c0.5-0.4,1.1-0.9,1.7-1.3c1.9-1,5.7-1.9,8.3-1.4c0.3,0,0.6,0.1,1,0.1c1.5,0.1,1.4-0.2,0.1-0.5c-0.2,0-4-0.8-6.9-0.3
			c1.6-1.4,3.7-3.2,5-4.7c1.3-1.1,3.8-1.6,6.1-1.5c1.5,0,1-0.3,0.1-0.4c-2.1-0.2-3.2-0.1-5,0.3c0.6-0.9,3-4.9,3.4-5.8
			c0.3-0.7-0.4-1-0.7-0.3c-0.8,1.6-3.1,5-6.2,8.1c-2.8,2.7-6.1,5.1-8,6.7c-0.5,0.4-1,0.8-1.5,1.2c0-0.8-0.1-1.8-0.2-2.6l-0.5-4.9
			c0.6-0.9,2.9-0.8,5-2.7c0.1-0.1,0.2-0.2,0.2-0.3l0,0c0.1-0.1,0-0.2-0.1-0.2s-0.3,0.1-0.5,0.2c-1.5,1.2-3.7,1.5-4.8,2l-0.5-3
			c-0.1-0.8-0.6-0.9-0.5-0.1c0.4,2.9,0.5,5.8,0.8,8.7c0.2,1.5-0.2,3.4-0.8,4.1c0,0.1-0.1,0.1-0.1,0.2c-1.4,1.2-2.8,2.2-3.8,3.4
			c-5.8,7.5-8.1,17.3-10,20.1c-1.7-3.3-5.5-5.1-6.4-12c-0.3-2.3-1.4-2.3-0.9,0c1.8,8.9,6.1,9.9,6.2,13.5l-7.1,13.3
			c-1.2,2.2-2.6,4.7-3.7,7.1c-0.5-2-1.1-4-1.6-6c-2-7.5-5.7-19.9-8-32.2c0.6-0.7,1.2-1.4,2-2l0,0c0.9-0.4,2.9-0.4,4.8,0
			c1.2,0.7,3.6,2.8,4.1,4.1c0.2,0.6,0.5,0.6,0.3,0c-0.5-1.3-1.8-2.7-2.9-3.7c1.5,0.5,2.8,1.2,3.5,2c0.5,0.5,0.6,0.3,0.1-0.2
			c-2.2-2.3-6-3.6-8.6-3.7c0.6-0.4,1.2-0.7,1.8-1c1.6-0.8,3.7-1.4,5.8-2c0.4-0.1,0.9-0.3,1.4-0.4c1.4-0.2,4,0.2,5.5,1.1
			c0.2,0.1,0.4,0.2,0.6,0.3c0.9,0.4,0.9,0.2,0.2-0.2c-0.1-0.1-2.3-1.4-4.2-1.8c1.3-0.5,3.1-1.1,4.2-1.7c1.1-0.4,2.7-0.1,4.1,0.5
			c1,0.4,0.7,0.1,0.2-0.2c-1.2-0.6-1.9-0.8-3.2-1c0.6-0.4,3-2.3,3.5-2.8c0.3-0.3,0-0.7-0.4-0.4c-0.9,0.8-3.1,2.4-5.8,3.6
			c-2.4,1-5,1.7-6.6,2.2c-0.4,0.1-0.8,0.2-1.2,0.4c0.2-0.5,0.3-1.1,0.5-1.7l0.9-3.2c0.6-0.4,2,0.2,3.7-0.5c0.5-0.2,0.3-0.4-0.1-0.2
			c-1.2,0.4-2.7,0-3.5,0.1l0.4-2c0.1-0.5-0.1-0.7-0.3-0.2c-0.5,1.9-1.1,3.8-1.6,5.6c-0.2,1-1,2.1-1.5,2.4c0,0-0.1,0-0.1,0.1
			c-1.1,0.4-2.2,0.8-3.2,1.2c-2,0.9-3.6,2.1-5,3.5c-0.5-2.9-0.9-5.8-1.3-8.6c6.2-3,12.1-5.4,17.5-10.9c1.1-1.1,2.2-2.3,3.3-3.7
			c0.1,0,0.1-0.1,0.2-0.1c0.6-0.6,2.4-1.3,3.8-1.4c2.7-0.3,5.3-0.8,8-1.1c0.7-0.1,0.6-0.4-0.1-0.4l-2.8,0.2c0.5-1,0.8-2.8,2-4.2
			c0.5-0.5,0.3-0.7-0.2-0.2c-1.8,2-1.8,3.8-2.7,4.5l-4.5,0.6c-0.8,0.1-1.6,0.2-2.4,0.4c0.4-0.5,0.8-1,1.2-1.5
			c1.5-1.8,3.9-4.9,6.5-7.7c3-3.1,6.2-5.7,7.7-6.6c0.6-0.4,0.4-0.9-0.2-0.5c-0.8,0.5-4.7,3.2-5.5,3.9c0.5-1.6,0.6-2.4,0.5-4
			c0-0.3-0.1-0.6-0.1-0.6l0,0c0,0-0.1,0-0.1,0.1s-0.1,0.3-0.1,0.7c0,1.8-0.6,3.8-1.6,5.1c-1.4,1.3-3.2,3.4-4.5,4.9
			c0.5-2.3,0-5.2,0-5.4c0-0.2-0.1-0.3-0.1-0.4v-0.1c-0.1-0.2-0.2-0.2-0.2,0c-0.1,0.1-0.1,0.4-0.1,0.8c0,0.2,0.1,0.5,0.1,0.7
			c0.3,2-0.6,5.2-1.7,6.9c-0.4,0.5-0.9,1.1-1.3,1.6c-0.6,0.8-1.2,1.5-1.8,2.2l0,0c-0.2,0.2-0.3,0.4-0.5,0.6l0,0
			c-1.2,1.5-2.4,2.8-3.5,4c-0.8,0.8-1.5,1.5-2.3,2.1c1.4-3.1,1.8-8,0.1-11c-0.4-0.6-0.6-0.5-0.3,0.1c0.6,1,0.8,2.7,0.6,4.6
			c-0.7-1.4-1.8-3.2-3.1-4c-0.6-0.4-0.7,0-0.1,0.3c1.4,0.8,2.7,4,2.9,5.6c-0.5,2.4-1.6,4.8-2.6,5.9l0,0c-3.8,2.6-8.1,4.2-12.2,6.1
			c-2.5-8.8,1.8-17.3-0.9-27.1c0.7-0.8,1.4-1.6,2.2-2.3l0,0c0.9-0.4,2.9-0.4,4.8,0c1.2,0.7,3.6,2.8,4.1,4.1c0.2,0.6,0.5,0.6,0.3,0
			c-0.5-1.3-1.8-2.7-2.9-3.7c1.5,0.5,2.8,1.2,3.5,2c0.4,0.5,0.6,0.3,0.1-0.2c-0.2-0.2-0.4-0.4-0.6-0.6c-0.5-0.5-1.1-0.8-1.7-1.2l0,0
			l0,0c-2-1.2-4.5-1.9-6.3-1.9c0.6-0.4,1.2-0.7,1.9-1c1.6-0.8,3.7-1.4,5.8-2c0.5-0.1,0.9-0.3,1.4-0.4c1.4-0.2,4,0.2,5.5,1.1
			c0.2,0.1,0.4,0.2,0.6,0.3c0.9,0.4,0.9,0.2,0.2-0.2c-0.1-0.1-2.3-1.4-4.2-1.9c1.3-0.5,3.1-1.1,4.2-1.7c1.1-0.4,2.7-0.1,4.1,0.5
			c1,0.4,0.7,0.1,0.1-0.2c-1.2-0.6-1.9-0.9-3.2-1c0.6-0.4,3-2.3,3.5-2.8c0.3-0.3,0-0.7-0.4-0.3c-0.8,0.8-3.1,2.4-5.8,3.5
			c-2.4,1-5,1.7-6.6,2.2c-0.4,0.1-0.8,0.2-1.2,0.4c0.2-0.5,0.4-1.1,0.5-1.7l0.9-3.2c0.6-0.4,2,0.2,3.7-0.5c0.2-0.1,0.3-0.1,0.3-0.2
			c0,0,0,0,0-0.1l0,0c-0.1,0-0.2,0-0.4,0c-1.2,0.4-2.7,0-3.5,0.1l0.4-2c0.1-0.3,0-0.5-0.1-0.5c0,0-0.1,0.1-0.2,0.2v0.1
			c-0.5,1.9-1.1,3.7-1.6,5.6c-0.2,1-1,2.1-1.5,2.4l-0.1,0.1c-1.1,0.4-2.2,0.8-3.2,1.2c-2.2,1-4,2.4-5.5,4c-0.3-1-0.8-2.1-1.2-3.2
			c0-0.1,0-0.1,0-0.2c-0.2-0.8,0.4-2.7,1.3-4c1.7-2.4,3.1-4.9,4.9-7.3c0.5-0.6,0-0.8-0.5-0.2l-1.9,2.4c-0.7-1-2.5-2.2-3.2-3.9
			c0,0,0-0.1-0.1-0.1c0-0.1,0-0.1-0.1-0.2c-0.3-0.5-0.5-0.4-0.3,0.2c0.9,2.6,3,3.6,3.1,4.7l-2.7,4.1c-0.5,0.7-1,1.4-1.4,2.2
			c-0.3-0.6-0.5-1.2-0.8-1.8c-1-2.2-2.7-6-3.9-9.6c-1.3-4.2-1.7-8.3-1.6-10.1c0-0.7-0.7-0.8-0.8-0.1c-0.1,1,0.1,5.6,0.3,6.7
			c-1.4-1.3-2.3-1.9-4.3-2.7c-0.8-0.3-1.4-0.3-0.1,0.4c2,1,4,2.6,4.6,4.2c0.5,1.9,1.4,4.5,2.2,6.5c-2.3-1.7-6-2.9-6.2-3
			c-1.2-0.4-1.5-0.1-0.1,0.5c0.3,0.1,0.6,0.2,0.9,0.3c2.6,0.9,5.5,3.5,6.7,5.2c0.3,0.7,0.6,1.3,0.8,1.9c1.3,3.1,2.6,6.1,3.4,8.6
			c0.3,1.1,0.5,2.1,0.6,3.1c-1.8-2-5-4.2-8.3-5.3c-0.6-0.2-1.2-0.4-1.9-0.5l0,0c-0.8-0.2-1.6-0.3-2.3-0.3c-1,0-1.1,0.3-0.1,0.3
			c1.6,0.1,3.7,0.9,5.7,2c-2.1-0.2-5-0.3-7,0.3c-0.9,0.3-0.6,0.6,0.3,0.3c2-0.7,6.7,0,8.7,0.7c1.7,1.2,3.1,2.7,4,4
			c2.3,3.7-1.2,16.1-0.3,22.6l0.7,6.1c0.2,1.4,0.4,2.9,0.7,4.4c-2.8-1.1-5.7-2.3-10.4-5.4l0,0c-1.4-1.5-2.9-4.8-3.6-8.1
			c0.3-2.2,2.2-6.6,4-7.7c0.8-0.5,0.7-1-0.2-0.5c-1.8,1.1-3.3,3.6-4.2,5.5c-0.2-2.5,0-4.8,0.8-6.2c0.3-0.5,0.3-0.8,0.1-0.7
			c-0.1,0.1-0.3,0.2-0.5,0.5c-2.4,4.1-1.7,10.8,0.2,15.1c-1.1-0.9-2.1-1.8-3.2-2.9c-2.5-2.6-5.2-5.9-8-9.4c-0.6-0.7-1.2-1.5-1.8-2.2
			c-1.4-2.3-2.7-6.7-2.3-9.5c0-0.3,0.1-0.7,0.1-1c0.1-1.6-0.4-1.6-0.6-0.3c0,0.2-0.7,4.2,0,7.4c-1.8-2.2-4.3-4.9-6.2-6.8
			c-1.5-1.7-2.2-4.5-2.3-7c0-1-0.2-1.2-0.3-1l0,0v0.1c-0.1,0.2-0.1,0.4-0.1,0.7c-0.2,2.2,0,3.4,0.7,5.6c-1.1-0.9-6.4-4.6-7.5-5.3
			c-0.9-0.5-1.2,0.2-0.4,0.7c2.1,1.2,6.5,4.7,10.6,9c3.6,3.8,6.8,8,8.9,10.5c0.5,0.7,1.1,1.3,1.6,2c-1.1-0.2-2.2-0.4-3.3-0.5
			l-6.1-0.8c-1.2-0.9-1.1-3.4-3.7-6.2c-0.1-0.1-0.2-0.2-0.3-0.3c-0.1-0.1-0.1-0.1-0.2-0.1c-0.2-0.1-0.2,0.2,0.2,0.7
			c1.7,2,2.1,4.4,2.8,5.8l-3.8-0.3c-1-0.1-1.1,0.4-0.1,0.5c3.7,0.4,7.3,1.1,11,1.5c1.9,0.2,4.4,1.2,5.2,2c0.1,0.1,0.2,0.1,0.2,0.2
			c1.5,1.8,3,3.6,4.5,5c7.5,7.5,10.3,8.9,18.6,13c0.8,4.8,1.8,9.9,2.8,14c-6.5-7.4-18-15.6-27.8-16.6c-1.5-0.2-3.3-0.2-5.1-0.2
			c0-0.1-0.1-0.1-0.2-0.1c-0.8-0.1-2.4-1.3-3.2-2.6c-1.6-2.4-3.4-4.7-5-7.2c-0.4-0.7-0.7-0.3-0.3,0.4l1.6,2.6c-1.2,0.3-3,1.6-5,1.6
			c-0.2,0-0.3,0-0.4,0.1c-0.1,0-0.2,0.1-0.2,0.1c-0.1,0.1,0.1,0.2,0.5,0.2c2.8,0.2,4.5-1.4,5.5-1.2l2.8,4c0.5,0.7,1,1.5,1.5,2.1
			c-0.6,0-1.3,0-2,0.1c-2.5,0.1-6.5,0.4-10.4,0.1c-4.4-0.3-8.4-1.4-10-2.2c-0.3-0.1-0.5-0.1-0.6,0.1c-0.1,0.1-0.1,0.2,0,0.3
			c0,0.1,0.2,0.2,0.3,0.3c0.9,0.4,5.3,2,6.3,2.2c-1.7,0.8-2.6,1.5-4,3c-0.6,0.7-0.9,1.2,0.3,0.2c1.7-1.5,3.9-2.8,5.6-2.8
			c1.9,0.2,4.7,0.3,6.9,0.3c-2.5,1.5-4.9,4.5-5,4.7c-0.8,1-0.7,1.3,0.4,0.2c0.2-0.2,0.4-0.5,0.6-0.7c1.8-2.1,5.2-3.9,7.3-4.3
			c0.7,0,1.4,0,2.1-0.1c3.4-0.1,6.6-0.2,9.3,0c1.1,0.1,2.1,0.3,3.1,0.5c-3.6,1.3-8.4,5.1-10.3,9.4c-0.4,0.9-0.2,1.1,0.2,0.2
			c0.7-1.5,2.2-3.1,4-4.6c-1,1.9-2.1,4.6-2.2,6.6c0,0.9,0.3,0.8,0.4-0.2c0.1-2.1,2.4-6.2,3.8-7.9c2.5-1.6,5.3-2.5,6.8-2.4l0,0
			c10.1,3.9,21.1,14.3,25,23.7c0.6,2.2,1.2,4.4,1.8,6.6c1.5,5.6,3,11.1,4.3,16.3c-1.8-0.7-3.8-1.6-6.8-3.6l0,0c-1-1-2.1-3.3-2.5-5.7
			c0.2-1.5,1.5-4.6,2.8-5.4c0.6-0.3,0.5-0.7-0.1-0.3c-1.3,0.8-2.3,2.5-3,3.9c-0.1-1.8,0-3.4,0.6-4.4c0.3-0.6,0.1-0.7-0.3-0.1
			c-1.7,2.9-1.2,7.6,0.1,10.6c-0.8-0.6-1.5-1.3-2.2-2c-1.8-1.8-3.7-4.2-5.6-6.6c-0.4-0.5-0.8-1-1.2-1.5c-1-1.6-1.9-4.7-1.6-6.7
			c0-0.2,0.1-0.5,0.1-0.7c0.1-1.1-0.3-1.1-0.4-0.2c0,0.2-0.5,2.9,0,5.2c-1.3-1.5-3-3.5-4.4-4.8c-1-1.2-1.5-3.2-1.6-4.9
			c0-1.2-0.3-0.8-0.3-0.2c-0.1,1.5,0,2.4,0.5,3.9c-0.8-0.7-4.5-3.3-5.3-3.7c-0.6-0.3-0.8,0.1-0.2,0.5c1.5,0.9,4.6,3.3,7.4,6.3
			c2.5,2.6,4.8,5.6,6.2,7.4c0.4,0.5,0.8,1,1.1,1.4c-0.7-0.2-1.6-0.2-2.3-0.3l-4.3-0.6c-0.8-0.6-0.8-2.4-2.6-4.3
			c-0.5-0.5-0.7-0.3-0.2,0.2c1.2,1.4,1.4,3.1,1.9,4.1l-2.7-0.2c-0.7-0.1-0.7,0.3-0.1,0.3c2.6,0.3,5.2,0.8,7.7,1.1
			c1.4,0.2,3.1,0.9,3.7,1.4c0,0,0.1,0.1,0.2,0.1c1.1,1.3,2.1,2.5,3.2,3.6c5.2,5.2,7.2,6.2,12.8,9c0.8,3.5,1.5,6.9,2,10.1
			c0.6,3.5,0.7,10.4,0.9,13.8l-11.4-17c-0.1-0.4-0.3-0.7-0.6-0.7c-3.8-0.3-7.2-0.3-14-2.3l0,0c-1.8-1-4.2-3.7-5.8-6.6
			c-0.3-2.2,0.1-7,1.6-8.5c0.6-0.7,0.4-1.1-0.3-0.4c-1.5,1.6-2.1,4.4-2.5,6.5c-0.9-2.4-1.4-4.6-1-6.2c0.2-1-0.2-1-0.4,0
			c-1.1,4.6,1.5,10.8,4.6,14.4c-1.3-0.5-2.6-1.1-3.9-1.8c-3.2-1.7-6.7-4.1-10.4-6.6c-0.8-0.5-1.5-1-2.3-1.6c-2-1.8-4.5-5.6-5-8.4
			c0-0.3-0.1-0.7-0.2-1c-0.2-0.6-0.3-1-0.5-1.1l0,0l0,0H71l0,0c-0.1,0.1-0.2,0.4-0.1,1c0,0.2,0.5,4.2,2.2,7.1
			c-2.4-1.5-5.6-3.5-7.9-4.6c-1.9-1.2-3.4-3.7-4.2-6c-0.5-1.6-0.7-1-0.5-0.1c0.5,2.1,1,3.2,2.3,5.1c-1.3-0.5-7.4-2.6-8.7-2.9
			c-1-0.2-1.1,0.5-0.1,0.8c2.3,0.6,7.6,2.6,12.8,5.5c4.5,2.6,8.9,5.7,11.6,7.5c0.7,0.5,1.4,1,2.1,1.4c-1.1,0.1-2.2,0.3-3.3,0.5
			l-6.1,1c-1.4-0.5-2.1-2.9-5.3-4.8c-0.8-0.5-1-0.2-0.2,0.4c2.2,1.4,3.3,3.6,4.4,4.7l-3.7,0.8c-1,0.2-0.9,0.7,0.1,0.5
			c3.6-0.7,7.3-1.1,11-1.8c1.9-0.4,4.5-0.1,5.5,0.4c0.1,0,0.2,0.1,0.3,0.1c2,1.3,4,2.5,5.8,3.5c4.1,2.2,7,3.5,9.8,4.5
			c-2.7,0.4-5.3,1-7.1,1.8c-2.2,0.9-1.5,1.9,0.7,1c4.8-2.1,13.5-1.4,16.3,0.2c1,1.1,2.2,2.4,3.4,3.8c-2.6,0.4-5.1,1.2-7.8,2.5
			c-1.4,0.7-2.9,1.6-4.4,2.6c-0.1,0-0.1,0-0.2,0c-0.8,0.3-2.7,0.2-4.1-0.5c-2.7-1.2-5.4-2.1-8.1-3.4c-0.7-0.3-0.8,0.1-0.1,0.5
			l2.8,1.3c-0.8,0.9-1.7,2.9-3.3,4c-0.6,0.4-0.5,0.8,0.1,0.4c2.4-1.4,3-3.7,4-4l4.5,1.9c0.8,0.3,1.6,0.7,2.4,1
			c-0.5,0.4-1.1,0.7-1.6,1.1c-2,1.4-5.3,3.8-8.7,5.7c-3.9,2.1-7.8,3.3-9.6,3.5c-0.7,0.1-0.6,0.8,0.1,0.8c1-0.1,5.5-1.2,6.5-1.5
			c-1,1.6-1.4,2.7-1.8,4.7c-0.2,0.9-0.1,1.5,0.4,0c0.6-2.2,1.8-4.4,3.2-5.3c1.8-0.8,4.2-2.3,6-3.4c-1.3,2.6-1.7,6.4-1.7,6.7
			c-0.2,1.3,0.2,1.5,0.5,0c0.1-0.3,0.1-0.6,0.2-1c0.4-2.7,2.3-6.1,3.8-7.5c0.6-0.4,1.2-0.8,1.8-1.2c2.8-1.9,5.4-3.8,7.8-5
			c1-0.5,2-0.9,2.9-1.2c-2.3,3.1-4.4,8.8-3.7,13.5c0.2,1,0.5,1,0.3,0c-0.2-1.6,0.2-3.8,0.9-6c0.2,2.1,0.6,5,1.7,6.8
			c0.5,0.8,0.7,0.5,0.2-0.4c-1-1.8-1.3-6.6-1-8.7c1.2-2.7,3.1-5,4.4-5.7l0,0c1-0.2,2-0.3,3.1-0.4c4.5,5.4,8.5,13.4,8.8,16.8
			c-0.6,16.2-5.3,31.7-8.2,47.4c-8,5.4-39-4.2-50.9,3.4c-2.3,1.4-3.8,3.5-4.4,6.4c-5.2,1.5-6.3,8.1-3.7,11.5c-1.8,2-2.4,3.4-2.4,4.7
			c-3,1.1-3.8,4.9-2.5,6.8c-1.1,1.1-1.6,2-1.6,2.8v0.4c0.1,1.5,1.6,2.7,1.4,5h0.1c0.3-3.8-2.7-4.4,0.5-7.6c1.4,1.6,4.3,2.7,1.7,5.8
			v0.2c0.8-0.9,1.2-1.7,1.3-2.4c2.5,0.6-0.3,4.9,0.6,7h0.1c-0.8-2,2.8-7.1-0.7-7.7c-0.1-1.9-2.6-2.8-3.2-4.5c-0.7-2,0.1-4.3,2.3-5
			c0.5,2.3,2.9,4.2,2.8,7.9h0.2c0.1-6.3-5-7.2,0-12.7c1.2,1.2,2.9,2.3,4,3.6c0.6,0.7,1,1.4,1,2.3h2.5l0,0c-0.4-0.5-1.1-0.8-2-1
			c-0.1-0.5-0.2-0.9-0.5-1.3c-1.2-2.3-4.4-3.8-5.4-6.1c-1.4-3.3-0.4-7.1,3.2-8.3c0,0.5-0.1,1.1-0.1,1.7c0,3.5,2.6,5.8,4.7,8.2
			c1.6,1.8,3,3.7,2.9,6.3l0.4,0.2c0.2-3.2-1.4-5.3-3.2-7.4c-1.2-1.6-3.8-5.1-3.8-7.2c-0.1-4,1.3-6.5,3.7-8c0.2-0.1,0.3-0.2,0.5-0.3
			c-0.2,0.2-0.3,0.5-0.4,0.7l-0.1,0.1c-0.3,0.7-0.5,1.3-0.4,2c0,0.6,0.2,1.1,0.4,1.6c0.4,0.7,1,1.2,1.8,1.7c-1,0.9-1.2,2.5-0.6,3.4
			c-2.1,2.1,0,2.5-0.2,4.6h0.1c0.2-2.1-1.5-2.5,0.3-4.3c0.8,0.9,2.4,1.5,1,3.3v0.1c0.5-0.5,0.7-1,0.8-1.3c1.3,0.3,0.1,2.5,0.3,3.8
			c-0.2-1.2,1.5-3.8-0.3-4.1c-0.1-1.1-1.5-1.6-1.8-2.5c-0.3-1-0.1-2.1,0.8-2.6c3.6,2,9.3,2.6,7.3,10H73c1.8-6.7-0.9-8-5.1-9.9
			c-1.7-0.8-4.2-1.8-4.2-3.7c0-0.4,0.1-0.9,0.4-1.5c0.4-0.8,1-1.5,1.9-2.2c1.3-0.4,2.8-0.6,4.4-0.8c-0.2,0.2-0.4,0.5-0.6,0.7
			c-0.2,0.4-0.4,0.8-0.4,1.1c-0.4,3.2,6.5,1.7,4.2,7.2h0.2c1.5-3.6,0.2-4.3-1.9-5.3c-0.8-0.4-1.9-0.9-1.9-1.8c0-0.3,0.1-0.6,0.4-1
			c0.2-0.3,0.6-0.7,1-1c2.8-0.1,6,0.1,9.4,0.4c2.3,0.3,4.5,0.5,6.8,0.8c1.5,0.2,3,0.4,4.5,0.6c1.2,1,1.5,2.6,1,4.1
			c-0.5,1.6-2.9,2.5-3,4.2c-3.3,0.5,0.1,5.4-0.6,7.2h0.1c0.9-2.1-1.8-6.1,0.6-6.6c0.1,0.6,0.5,1.3,1.2,2.2v-0.2
			c-2.4-2.9,0.2-3.9,1.6-5.4c3,3.1,0.2,3.6,0.5,7.2h0.1c-0.3-3.4,3.2-4.2-0.3-7.6c0.9-1.3,0.8-3.4-0.3-4.9c2.8,0.4,7.9,0.8,10.5,0.9
			c3.3,0.1,6.3-0.1,8.9-0.8c2.4,0.8,3.3,3.2,2.6,5.3c-0.7,1.8-3.6,2.8-3.8,4.9c-4.1,0.6,0.2,6.2-0.8,8.3h0.1
			c1.1-2.4-2.2-7.1,0.8-7.7c0.2,0.7,0.6,1.5,1.5,2.6v-0.2c-3.1-3.4,0.3-4.5,2-6.3c3.8,3.6,0.2,4.2,0.6,8.3h0.1
			c-0.4-3.9,4-4.8-0.3-8.8c1.4-1.9,0.8-5.2-1.6-6.8c4.3-1.6,5.3-1.6,9.6,0c-2.4,1.6-3,5-1.6,6.8c-1.3,1.2-1.8,2.1-1.9,3
			c-2.3,0.6-3,3.3-2,4.6c-2.7,2.5,0,3-0.2,5.4h0.1c0.3-2.5-1.9-2.9,0.4-5.1c1,1.1,3.1,1.8,1.2,3.8v0.1c0.6-0.6,0.9-1.1,1-1.6
			c1.8,0.4-0.2,3.2,0.5,4.7h0.1c-0.6-1.3,2-4.8-0.5-5.1c-0.1-1.2-1.9-1.9-2.3-3c-0.5-1.3,0.1-2.8,1.8-3.3c0.2,1.5,1.8,2.8,1.6,5.2
			h0.1c0.4-4.1-3.2-4.8,0.6-8.3c1.7,1.8,5,2.9,2,6.3v0.2c0.9-1,1.4-1.9,1.6-2.6c3,0.6-0.3,5.3,0.8,7.7h0.1c-1-2.1,3.3-7.8-0.8-8.3
			c-0.2-2-3.1-3.1-3.8-4.9c-0.8-2.1,0.1-4.4,2.6-5.3c2.7,0.7,7.7,0.8,11.2,0.7c2.6-0.2,5.4-0.5,8.2-0.8c-1.1,1.5-1.2,3.6-0.3,4.9
			c-3.5,3.5,0.1,4.2-0.3,7.6h0.1c0.3-3.6-2.5-4.1,0.5-7.2c1.4,1.5,4,2.5,1.6,5.4v0.2c0.7-0.9,1.1-1.6,1.2-2.2
			c2.3,0.5-0.3,4.6,0.6,6.6h0.1c-0.8-1.8,2.6-6.7-0.6-7.2c-0.1-1.8-2.5-2.7-3-4.2s-0.2-3.1,1-4.1c2.9-0.4,5.8-0.8,8.6-1.1
			c3.2-0.3,9.2-0.9,12-0.7c1,0.8,1.4,1.5,1.3,2.2c-0.4,2.3-6,1.5-3.6,6.9h0.2c-2.4-5.5,4.5-4,4.2-7.2c-0.1-0.7-0.5-1.3-1-1.8
			c1.6,0.1,3.1,0.4,4.4,0.8c4.7,5,0.2,6.4-3.2,8c-3.4,1.6-5.4,3.4-3.8,9.3h0.3c-2-7.3,3.8-8,7.3-10c0.9,0.5,1.2,1.6,0.8,2.6
			c-0.3,0.9-1.7,1.5-1.8,2.5c-1.8,0.3-0.1,2.8-0.3,4.1c0.2-1.3-1-3.4,0.3-3.7c0.1,0.4,0.3,0.8,0.7,1.3v-0.1c-1.5-1.7,0.1-2.4,1-3.3
			c1.8,1.8,0.1,2.2,0.3,4.3h0.1c-0.2-2,1.9-2.5-0.2-4.6c0.6-0.9,0.4-2.5-0.6-3.4c0.7-0.5,1.4-1,1.8-1.7c0.2-0.5,0.4-1,0.4-1.6
			c0-0.7-0.1-1.4-0.4-2c-0.1-0.3-0.3-0.6-0.5-0.8c0.2,0.1,0.3,0.2,0.5,0.3c2.4,1.5,3.7,4.1,3.7,8c0,2.1-1,3.7-2.2,5.3
			c-1.7,2-4.9,6.2-4.7,9.3l0.2-0.1c-0.1-0.4,1.5-4.5,3.1-6.3c2.1-2.4,4.6-4.6,4.7-8.2c0-0.6,0-1.1-0.1-1.7c3.6,1.2,4.6,5,3.2,8.3
			c-1,2.3-4.2,3.8-5.4,6.1c-0.2,0.4-0.4,0.8-0.5,1.3c-0.1,0-0.1,0-0.2,0v1.1c0.1,0,0.1,0,0.2-0.1c0.1,1.1,0.7,2.4,1.9,3.9l0.1-0.3
			c-2.1-2.7-1.7-4.5-0.4-6c1.1-1.3,2.8-2.4,4-3.6c5,5.4-0.2,6.4-0.1,12.7h0.2c-0.1-3.6,2.2-5.5,2.8-7.9c2.2,0.7,3,3,2.3,5
			c-0.6,1.7-3,2.6-3.2,4.5c-3.5,0.5,0.1,5.7-0.7,7.6h0.1c0.9-2.2-1.9-6.5,0.6-7c0.1,0.7,0.5,1.4,1.3,2.4v-0.2
			c-2.6-3.1,0.2-4.1,1.7-5.8c3.2,3.3,0.2,3.9,0.5,7.6h0.1c-0.2-2.3,1.2-3.5,1.4-5v-0.6c-0.1-0.8-0.5-1.6-1.6-2.8
			c1.4-2,0.5-5.8-2.5-6.8c0-1.3-0.5-2.8-2.4-4.7c2.6-3.4,1.5-10-3.7-11.5c-0.6-2.9-2.2-5-4.4-6.4c-11.6-7.4-41.2,1.4-50.5-2.9
			c-0.6-13.4,4.8-32,5.1-48.8c5.3-2.6,9.3-4.7,12.8-6.9c1,0.1,2,0.2,3.1,0.4l0,0c1.3,0.7,3.2,3,4.4,5.7c0.3,2.1,0,6.9-1,8.7
			c-0.5,0.8-0.3,1.2,0.2,0.4c1-1.8,1.5-4.7,1.7-6.8c0.7,2.2,1.1,4.4,0.9,6c-0.2,1,0.2,1,0.3,0c0.7-4.7-1.3-10.4-3.7-13.5
			c1,0.3,1.9,0.7,2.9,1.2c2.4,1.2,5.1,3.1,7.8,5c0.6,0.4,1.2,0.8,1.8,1.2c1.5,1.5,3.5,4.9,3.9,7.6c0,0.3,0.1,0.6,0.1,0.9
			c0.3,1.5,0.6,1.3,0.5,0c0-0.2-0.5-4.1-1.7-6.7c1.8,1.1,4.2,2.6,6,3.4c1.4,0.9,2.6,3.1,3.2,5.3c0.4,1.5,0.6,0.9,0.4,0
			c-0.4-2-0.8-3-1.8-4.7c1,0.3,5.5,1.4,6.5,1.5c0.7,0.1,0.8-0.7,0.1-0.8c-1.7-0.2-5.7-1.5-9.6-3.5c-3.4-1.8-6.7-4.3-8.7-5.7
			c-0.5-0.4-1.1-0.8-1.6-1.1c0.8-0.2,1.7-0.6,2.4-1l4.5-1.9c1,0.3,1.6,2.6,4,4c0.6,0.4,0.8,0,0.2-0.4c-1.6-1.1-2.5-3.1-3.3-4
			l2.8-1.4c0.7-0.3,0.7-0.8-0.1-0.5c-2.7,1.3-5.4,2.2-8.1,3.4c-1.4,0.6-3.3,0.8-4.1,0.5c-0.1,0-0.1,0-0.2,0c-1.5-1-3-1.9-4.4-2.6
			c-2.4-1.2-4.7-1.9-6.9-2.4c3.2-2.4,6.6-5.3,11.1-9.9c2.1-2.1,4.2-4.6,6.4-7.2c0.1,0,0.2-0.1,0.3-0.2c1.2-1.1,4.7-2.5,7.4-2.8
			c5.2-0.6,10.4-1.6,15.6-2.2c1.4-0.1,1.3-0.8-0.1-0.7l-5.4,0.4c1-1.9,1.6-5.4,3.9-8.2c0.9-1.1,0.5-1.4-0.4-0.4
			c-3.6,3.9-3.5,7.4-5.2,8.7l-8.7,1.2c-1.5,0.2-3.1,0.4-4.6,0.7c0.8-0.9,1.5-1.9,2.3-2.9c2.9-3.6,7.5-9.6,12.6-14.9
			c5.8-6,12.1-11,15-12.8C194.8,118.6,194.3,117.7,193.1,118.4z M172.9,258.6c0.1,0,0.2,0,0.4,0c0.1,0,0.3,0,0.4,0
			c0-0.8,0.1-1.5,0.4-2.1c-0.3-0.1-0.6-0.2-1-0.2C172.8,256.9,172.8,257.7,172.9,258.6z M59.6,258.4c-0.1,0.2-0.2,0.3-0.4,0.5
			l0.1,0.3c0.2-0.3,0.4-0.6,0.6-0.8H59.6z M63,264.2h-0.4c0,0.8,0.1,1.6,0.3,2.3h0.2C62.9,265.9,62.9,265.1,63,264.2z M63.2,258.4
			c0,0.7-0.1,1.5-0.2,2.3h0.6c0.1-0.8,0.3-1.6,0.3-2.3H63.2z" />
			<path id="leaf-human1" class="st2 leaf leaf-human" d="M184.8,51l-17.1-3.9c-0.4-0.1-0.7,0.1-0.8,0.5c-0.1,0.4,0.1,0.8,0.4,0.9l5.9,1.9l-1.1,4.6l-2.5,8.4
			c-0.1,0.3,0,0.7,0.4,0.9c0.4,0.2,0.8,0,1-0.3l3.2-7.1c0.2-0.3,0.6-0.2,0.6,0.2l-0.2,7.8c0,0.4,0.3,0.7,0.6,0.7
			c0.4,0,0.8-0.2,0.8-0.6l1.3-8.6l1-4.6l6.1,0.8c0.4,0,0.7-0.2,0.8-0.6C185.4,51.5,185.2,51.1,184.8,51z M177.4,43.8
			c-1.1-0.2-2.2,0.4-2.4,1.5c-0.2,1.1,0.4,2.2,1.5,2.4c1.1,0.2,2.2-0.4,2.4-1.5C179.2,45.1,178.5,44,177.4,43.8z" />
			<g>
				<path class="st2" d="M199.6,112L199.6,112L199.6,112z" />

				<path id="leaf-memory1" class="st2 leaf leaf-memory" d="M203.1,104.3c0.3-0.6,0.7-0.9,0.7-0.9c0.2-0.1,0.4-0.1,0.5,0c0.1,0.1,0.1,0.4,0,0.5c-0.2,0.2-0.6,0.8-0.7,1.5
		c0,0.6,0,1.2,1,1.6c0.6,0.3,0.6,0.8,0.5,1.1c0,0.4-0.1,0.9,0.4,1.6c0.2,0.3,0.5,0.5,0.7,0.7c0.1,0.1,0.3,0.2,0.4,0.4
		c0.4-0.5,0.8-1.3,0.9-1.9c0.1-0.7,0.1-1.4-0.2-2l-0.1-0.1l0.1-0.1c0.1-0.2,0.2-0.5,0.3-0.7c-0.1,0-0.3,0-0.5,0
		c-0.7-0.2-1.1-0.6-1.4-1.1c-0.4-0.9-0.1-1.7,0-2.1c0.1-0.4,0.2-0.8,0.4-1.2c0.3-0.7,0.6-1.6,0.6-2c0-1.1-0.5-1.2-0.7-1.2
		c-0.2,0-0.3-0.2-0.3-0.4c0-0.2,0.2-0.3,0.4-0.3c0.5,0.1,1.3,0.5,1.3,1.9c0,0.5-0.3,1.3-0.6,2.2c-0.2,0.5-0.3,0.8-0.4,1.2
		c-0.1,0.4-0.3,1.1-0.1,1.6c0.2,0.3,0.5,0.6,0.9,0.7c0.2,0.1,0.6,0,0.9-0.3c0.2-0.2,0.3-0.5,0.4-0.8c0.1-0.4,0-0.9-0.2-1.3l-0.1-0.3
		l0.2-0.2c0.4-0.3,0.7-0.7,0.8-1.2c0.1-0.4,0-0.8-0.1-1.2l-0.1-0.2l0.2-0.2c0.4-0.3,0.7-0.7,0.8-1.2c0.3-1.2-0.4-2.2-1.5-2.4
		c-0.8-0.2-1.5,0-2,0.7c-0.7-0.4-1.8,0.1-2.2,0.7c-0.4,0.7-0.5,1.5,0.2,2.8c0.1,0.2,0.2,0.4,0.3,0.5c0.1,0.2,0.1,0.4-0.1,0.5
		c-0.1,0.1-0.2,0.1-0.3,0.1c-0.1,0-0.2-0.1-0.2-0.1c-0.1-0.2-0.3-0.4-0.4-0.6c-0.5-0.9-0.5-1.8-0.4-2.4c-1.6,0.6-2.2,2.3-1.8,3.3
		C200.7,102.2,201.5,103.9,203.1,104.3z" />
				<path id="leaf-memory1" class="st2 leaf leaf-memory" d="M205.7,110.9c-0.3-0.2-0.6-0.5-0.9-0.9c-0.6-0.9-0.5-1.6-0.5-2.1c0-0.4,0-0.4-0.1-0.4
		c-0.6-0.2-0.9-0.5-1.1-0.8c-0.4,0.1-0.7,0.1-1,0c-0.9-0.2-1.5-0.8-1.6-0.8c-0.1-0.1-0.1-0.4,0-0.5c0.1-0.1,0.4-0.1,0.5,0
		c0,0,0.8,0.8,1.8,0.7c0-0.2-0.1-0.7,0-1.1c-1.5-0.3-2.7-1.5-2.4-3c-2.6,2.4-1,5.6,1.5,7c0.7,0.4,1,1.2,0.8,1.9
		c0,0.1-0.1,0.3-0.2,0.5c0.3,0.1,0.6,0.3,0.9,0.5c0-0.5,0.2-0.9,0.2-1c0.1-0.2,0.3-0.3,0.5-0.2c0.2,0.1,0.3,0.3,0.2,0.5
		c0,0-0.4,1-0.1,1.6c0.2,0.3,0.3,0.8,0.3,1.3c0,0.2-0.2,0.3-0.4,0.3c0,0,0,0,0,0c-0.2,0-0.3-0.2-0.3-0.4c0.1-1.5-1.3-2-1.8-2.2
		c-0.3,0.2-0.7,0.3-1.2,0.4c0,0-0.1,0-0.1,0c-0.2,0-0.3-0.2-0.3-0.3c0-0.2,0.1-0.4,0.3-0.4c0.8-0.1,1.3-0.4,1.4-0.9
		c0.1-0.4-0.1-1-0.5-1.2c-1.4-0.8-2.2-1.8-2.7-3c-1.4,2,0.2,3.4,1.4,3.6c0.2,0,0.3,0.2,0.3,0.4c0,0.2-0.2,0.3-0.4,0.3
		c-0.1,0-0.2,0-0.3,0c-0.4-0.1-0.8-0.2-1-0.4c-0.6,1.2,0.2,3.6,2.7,3.3c-0.1,1.7,2.1,3,3.9,1.8C207.3,114.2,206.9,111.8,205.7,110.9
		z" />
				<path id="leaf-memory1" class="st2 leaf leaf-memory" d="M210,101.1c0,0.1,0,0.2,0,0.3c0.4-0.3,0.7-0.5,1-0.6c0.1,0,0.2-0.1,0.3-0.1c0.9-0.4,1.3-0.6,1.5-1.6
		c0-0.2,0.2-0.3,0.4-0.3c0.2,0,0.3,0.2,0.3,0.4c-0.2,1.3-0.9,1.7-1.9,2.1c-0.1,0-0.2,0.1-0.3,0.1c-0.4,0.2-0.9,0.5-1.2,0.9l0,0
		l-0.1,0.1c-0.2,0.2-0.3,0.5-0.4,0.8c-0.1,0.3-0.1,0.6,0,0.9l0,0.1l-0.1,0.1c-0.2,0.3-0.4,0.7-0.5,1.1c-0.1,0.3-0.1,0.6,0,0.9
		c0.3-0.3,0.7-0.4,1.2-0.6c0.6-0.2,1.3-0.1,1.8,0c0.9-0.6,2-0.8,3-0.6c0,0,0,0,0,0c0.6,0.1,1.8,0.6,2.1,1.4c0.5-1.2,0.3-2.4-0.9-3
		c0.5-1,0.1-2.2-0.4-2.6c-0.4,0.7-1,1-1.5,1.2c0.1,0.3,0.3,0.9,0.2,1.6c0,0.2-0.2,0.3-0.4,0.2c0,0,0,0,0,0c-0.2,0-0.3-0.2-0.3-0.4
		c0.1-0.4-0.1-1-0.2-1.2c-0.6,0.2-1.3,0.5-1.8,1.4c-0.1,0.1-0.2,0.2-0.4,0.1c0,0-0.1,0-0.1,0c-0.2-0.1-0.2-0.3-0.1-0.5
		c0.7-1.2,1.6-1.5,2.3-1.7c0.6-0.2,1.2-0.4,1.7-1.2l0.1-0.3c0.1-0.2,0.1-0.3,0.2-0.5c0.3-1.3-0.6-2.5-1.9-2.8
		c-1.3-0.3-2.6,0.5-2.9,1.8c-0.1,0.3-0.1,0.6,0,1l0,0.2l-0.1,0.1C210.2,100.3,210,100.7,210,101.1z" />
				<path id="leaf-memory1" class="st2 leaf leaf-memory" d="M216.2,111.1c-0.4,0.3-0.7,0.5-0.8,0.5c-0.1,0-0.2,0.1-0.2,0c-0.1,0-0.2-0.1-0.2-0.2c-0.1-0.2,0-0.4,0.1-0.5
		c0.2-0.1,0.6-0.3,0.9-0.6l0,0l0.2-0.2c0.4-0.4,0.7-0.8,0.8-1.4c0.1-0.7,0-1.4-0.4-2c0,0,0-0.1-0.1-0.1l0,0
		c-0.3-0.4-0.9-0.8-1.6-0.9c-0.5-0.1-1.6-0.2-2.6,0.6l-0.2,0.2l-0.2-0.1c-0.2-0.1-0.8-0.2-1.5-0.1c-0.5,0.1-1.1,0.4-1.5,1.1
		c-0.6,1.1,0.1,2,0.4,2.3c0.1,0.1,0.2,0.3,0,0.5c-0.1,0.1-0.2,0.1-0.3,0.1c-0.1,0-0.1,0-0.2-0.1c-0.2-0.2-0.5-0.6-0.7-1
		c-0.1,0.2-0.3,0.5-0.3,0.8c-0.1,0.5,0,1.1,0.2,1.5l0.1,0.1c0.2,0.4,0.5,0.8,0.8,1.1c0.1,0.2,0.2,0.3,0.3,0.4c0.8,1.1,0.3,2,0,2.4
		c-0.1,0.1-0.2,0.1-0.3,0.1c-0.1,0-0.1,0-0.2-0.1c-0.1-0.1-0.2-0.3,0-0.5c0.1-0.1,0.6-0.7,0-1.6c-0.1-0.1-0.2-0.2-0.3-0.4
		c-0.2-0.2-0.4-0.5-0.6-0.8c0,0.1-0.1,0.2-0.1,0.3c-0.1,0.3,0,0.5,0,0.8l0,0.2l-0.1,0.1c-0.3,0.3-0.4,0.6-0.5,1
		c-0.2,1.1,0.5,2.2,1.7,2.5c0.8,0.2,1.6-0.1,2.2-0.7l0.1-0.1l0.1,0c0.4,0,0.8-0.2,1.1-0.5c-0.3-0.1-0.5-0.3-0.8-0.5
		c-0.4-0.4-0.6-0.9-0.5-1.5c0.1-0.5,0.3-1,0.6-1.4c-0.3,0-0.6,0-0.9-0.1c-0.3-0.1-0.6-0.2-0.7-0.3c-0.2-0.1-0.2-0.3-0.1-0.5
		c0.1-0.1,0.3-0.2,0.5-0.1c0.3,0.2,1.6,0.4,2.2-0.2c0.6-0.7,0.8-1,0.8-1.4c-0.1-0.4-0.3-0.6-0.5-0.7c-0.4-0.2-0.9-0.2-1.3,0.1
		c-0.2,0.1-0.4,0-0.5-0.1c-0.1-0.2,0-0.4,0.1-0.5c0.5-0.3,1.1-0.3,1.7-0.2c0.3-0.6,0.3-1.2,0.3-1.2c0-0.2,0.2-0.3,0.3-0.3
		c0.2,0,0.4,0.2,0.4,0.3c0,0,0,0.8-0.4,1.5c0.3,0.3,0.5,0.6,0.6,1c0.1,0.9-0.4,1.5-1.4,2.5c0,0-0.8,0.9-0.9,1.6
		c0,0.3,0.1,0.7,0.3,0.9C213.6,116.3,216.6,113.8,216.2,111.1z" />
			</g>
		</g>
	</g>
</svg>